<?xml version="1.0" encoding="UTF-8"?>
<svg width="369px" height="203px" viewBox="0 0 369 203" version="1.1" xmlns="http://www.w3.org/2000/svg" xmlns:xlink="http://www.w3.org/1999/xlink">
    <!-- Generator: Sketch 49.3 (51167) - http://www.bohemiancoding.com/sketch -->
    <title>AM/assets/devices_320</title>
    <desc>Created with Sketch.</desc>
    <defs>
        <rect id="path-1" x="65" y="0" width="281" height="146" rx="5.46159674"></rect>
        <path d="M23,76.92157 C23,73.6511772 25.6549706,71 28.9166489,71 L224.083351,71 C227.351026,71 230,73.652331 230,76.92157 L230,190 L23,190 L23,76.92157 Z" id="path-2"></path>
        <rect id="path-3" x="291" y="64" width="74" height="105" rx="5.46159674"></rect>
        <rect id="path-4" x="263.100275" y="101" width="45" height="80" rx="4.09619756"></rect>
        <path d="M0.780256881,190.834154 C0.340870756,189.821179 0.875812619,189 1.98432298,189 L250.985033,189 C252.089406,189 252.666685,189.835394 252.189099,190.834154 C252.189099,190.834154 249.984678,199 237.984678,199 L14.9846779,199 C2.98467792,199 0.780256881,190.834154 0.780256881,190.834154 Z" id="path-5"></path>
        <filter x="-21.9%" y="-11.1%" width="182.5%" height="138.5%" filterUnits="objectBoundingBox" id="filter-6">
            <feOffset dx="11" dy="10" in="SourceAlpha" result="shadowOffsetOuter1"></feOffset>
            <feGaussianBlur stdDeviation="6" in="shadowOffsetOuter1" result="shadowBlurOuter1"></feGaussianBlur>
            <feColorMatrix values="0 0 0 0 0   0 0 0 0 0   0 0 0 0 0  0 0 0 0.072435462 0" type="matrix" in="shadowBlurOuter1" result="shadowMatrixOuter1"></feColorMatrix>
            <feMerge>
                <feMergeNode in="shadowMatrixOuter1"></feMergeNode>
                <feMergeNode in="SourceGraphic"></feMergeNode>
            </feMerge>
        </filter>
        <rect id="path-7" x="0" y="0" width="57" height="122" rx="3.68657771"></rect>
        <rect id="path-8" x="6" y="90" width="11" height="4" rx="2"></rect>
        <rect id="path-9" x="23" y="90" width="11" height="4" rx="2"></rect>
        <rect id="path-10" x="40" y="90" width="11" height="4" rx="2"></rect>
        <rect id="path-11" x="6" y="99" width="11" height="4" rx="2"></rect>
        <rect id="path-12" x="23" y="99" width="11" height="4" rx="2"></rect>
        <rect id="path-13" x="40" y="99" width="11" height="4" rx="2"></rect>
        <rect id="path-14" x="6" y="108" width="11" height="4" rx="2"></rect>
        <rect id="path-15" x="23" y="108" width="11" height="4" rx="2"></rect>
        <rect id="path-16" x="40" y="108" width="11" height="4" rx="2"></rect>
        <rect id="path-17" x="6" y="74" width="12" height="5" rx="2.45771847"></rect>
        <rect id="path-18" x="39" y="74" width="12" height="5" rx="2.45771847"></rect>
        <ellipse id="path-19" cx="28.5" cy="75.5016638" rx="5.5" ry="5.50166378"></ellipse>
    </defs>
    <g id="AM/assets/devices_320" stroke="none" stroke-width="1" fill="none" fill-rule="evenodd">
        <rect id="Rectangle-3" fill-opacity="0" fill="#FFFFFF" x="0" y="0" width="369" height="203"></rect>
        <g id="Group-30" transform="translate(2.000000, 2.000000)">
            <g id="Rectangle-6" transform="translate(205.500000, 73.000000) scale(-1, 1) translate(-205.500000, -73.000000) ">
                <use fill="#FFFFFF" fill-rule="evenodd" xlink:href="#path-1"></use>
                <rect stroke="#C6C6C6" stroke-width="1" x="65.5" y="0.5" width="280" height="145" rx="5.46159674"></rect>
            </g>
            <g id="Rectangle-6-Copy" transform="translate(126.500000, 130.500000) scale(-1, 1) translate(-126.500000, -130.500000) ">
                <use fill="#FFFFFF" fill-rule="evenodd" xlink:href="#path-2"></use>
                <path stroke="#C6C6C6" stroke-width="1" d="M23.5,189.5 L229.5,189.5 L229.5,76.92157 C229.5,73.9279668 227.074377,71.5 224.083351,71.5 L28.9166489,71.5 C25.9290567,71.5 23.5,73.9293762 23.5,76.92157 L23.5,189.5 Z"></path>
            </g>
            <g id="Rectangle-6-Copy-3" transform="translate(328.000000, 116.500000) scale(-1, 1) translate(-328.000000, -116.500000) ">
                <use fill="#FFFFFF" fill-rule="evenodd" xlink:href="#path-3"></use>
                <rect stroke="#C6C6C6" stroke-width="1" x="291.5" y="64.5" width="73" height="104" rx="5.46159674"></rect>
            </g>
            <g id="Rectangle-6-Copy-4" transform="translate(285.600275, 141.000000) scale(-1, 1) translate(-285.600275, -141.000000) ">
                <use fill="#FFFFFF" fill-rule="evenodd" xlink:href="#path-4"></use>
                <rect stroke="#C6C6C6" stroke-width="1" x="263.600275" y="101.5" width="44" height="79" rx="4.09619756"></rect>
            </g>
            <g id="Rectangle-13" transform="translate(126.492339, 194.000000) scale(-1, 1) translate(-126.492339, -194.000000) ">
                <use fill="#FFFFFF" fill-rule="evenodd" xlink:href="#path-5"></use>
                <path stroke="#C6C6C6" stroke-width="1" d="M1.2389636,190.635186 L1.26297674,190.703841 C1.27617059,190.752715 1.30951768,190.857271 1.36659203,191.0095 C1.4645665,191.270819 1.59343873,191.564032 1.75673429,191.881185 C2.22652187,192.793609 2.87655692,193.708099 3.73518669,194.562692 C6.20440485,197.0203 9.86556642,198.5 14.9846779,198.5 L237.984678,198.5 C243.103789,198.5 246.764951,197.0203 249.234169,194.562692 C250.092799,193.708099 250.742834,192.793609 251.212622,191.881185 C251.375917,191.564032 251.504789,191.270819 251.602764,191.0095 C251.659838,190.857271 251.693185,190.752715 251.738018,190.618456 C252.049694,189.966657 251.738302,189.5 250.985033,189.5 L1.98432298,189.5 C1.2373895,189.5 0.942125409,189.950846 1.2389636,190.635186 Z"></path>
            </g>
            <g id="Group-6" filter="url(#filter-6)" transform="translate(122.000000, 37.000000)">
                <g id="Rectangle-6-Copy-5">
                    <use fill="#FFFFFF" fill-rule="evenodd" xlink:href="#path-7"></use>
                    <rect stroke="#C6C6C6" stroke-width="1" x="0.5" y="0.5" width="56" height="121" rx="3.68657771"></rect>
                </g>
                <rect id="Rectangle-6-Copy-6" stroke="#C6C6C6" x="5.5" y="5.5" width="46" height="56" rx="1.22885924"></rect>
                <g id="Rectangle-6-Copy-7">
                    <use fill="#FFFFFF" fill-rule="evenodd" xlink:href="#path-8"></use>
                    <rect stroke="#C6C6C6" stroke-width="1" x="6.5" y="90.5" width="10" height="3" rx="1.5"></rect>
                </g>
                <g id="Rectangle-6-Copy-8">
                    <use fill="#FFFFFF" fill-rule="evenodd" xlink:href="#path-9"></use>
                    <rect stroke="#C6C6C6" stroke-width="1" x="23.5" y="90.5" width="10" height="3" rx="1.5"></rect>
                </g>
                <g id="Rectangle-6-Copy-9">
                    <use fill="#FFFFFF" fill-rule="evenodd" xlink:href="#path-10"></use>
                    <rect stroke="#C6C6C6" stroke-width="1" x="40.5" y="90.5" width="10" height="3" rx="1.5"></rect>
                </g>
                <g id="Rectangle-6-Copy-12">
                    <use fill="#FFFFFF" fill-rule="evenodd" xlink:href="#path-11"></use>
                    <rect stroke="#C6C6C6" stroke-width="1" x="6.5" y="99.5" width="10" height="3" rx="1.5"></rect>
                </g>
                <g id="Rectangle-6-Copy-11">
                    <use fill="#FFFFFF" fill-rule="evenodd" xlink:href="#path-12"></use>
                    <rect stroke="#C6C6C6" stroke-width="1" x="23.5" y="99.5" width="10" height="3" rx="1.5"></rect>
                </g>
                <g id="Rectangle-6-Copy-10">
                    <use fill="#FFFFFF" fill-rule="evenodd" xlink:href="#path-13"></use>
                    <rect stroke="#C6C6C6" stroke-width="1" x="40.5" y="99.5" width="10" height="3" rx="1.5"></rect>
                </g>
                <g id="Rectangle-6-Copy-15">
                    <use fill="#FFFFFF" fill-rule="evenodd" xlink:href="#path-14"></use>
                    <rect stroke="#C6C6C6" stroke-width="1" x="6.5" y="108.5" width="10" height="3" rx="1.5"></rect>
                </g>
                <g id="Rectangle-6-Copy-14">
                    <use fill="#FFFFFF" fill-rule="evenodd" xlink:href="#path-15"></use>
                    <rect stroke="#C6C6C6" stroke-width="1" x="23.5" y="108.5" width="10" height="3" rx="1.5"></rect>
                </g>
                <g id="Rectangle-6-Copy-13">
                    <use fill="#FFFFFF" fill-rule="evenodd" xlink:href="#path-16"></use>
                    <rect stroke="#C6C6C6" stroke-width="1" x="40.5" y="108.5" width="10" height="3" rx="1.5"></rect>
                </g>
                <g id="Rectangle-6-Copy-17">
                    <use fill="#FFFFFF" fill-rule="evenodd" xlink:href="#path-17"></use>
                    <rect stroke="#C6C6C6" stroke-width="1" x="6.5" y="74.5" width="11" height="4" rx="2"></rect>
                </g>
                <g id="Rectangle-6-Copy-18">
                    <use fill="#FFFFFF" fill-rule="evenodd" xlink:href="#path-18"></use>
                    <rect stroke="#C6C6C6" stroke-width="1" x="39.5" y="74.5" width="11" height="4" rx="2"></rect>
                </g>
                <g id="Oval-3">
                    <use fill="#FFFFFF" fill-rule="evenodd" xlink:href="#path-19"></use>
                    <ellipse stroke="#C6C6C6" stroke-width="1" cx="28.5" cy="75.5016638" rx="5" ry="5.00166378"></ellipse>
                </g>
            </g>
        </g>
    </g>
</svg>