<?xml version="1.0" encoding="UTF-8"?>
<svg width="284px" height="335px" viewBox="0 0 284 335" version="1.1" xmlns="http://www.w3.org/2000/svg" xmlns:xlink="http://www.w3.org/1999/xlink">
    <!-- Generator: Sketch 49.3 (51167) - http://www.bohemiancoding.com/sketch -->
    <title>AM/assets/iphone_video_320</title>
    <desc>Created with Sketch.</desc>
    <defs>
        <path d="M0,46.1901109 C0,20.680017 20.6885498,0 46.1970706,0 L233.802929,0 C259.316867,0 280,20.6874356 280,46.1901109 L280,470 L0,470 L0,46.1901109 Z" id="path-1"></path>
        <linearGradient x1="50%" y1="0%" x2="50%" y2="52.241087%" id="linearGradient-3">
            <stop stop-color="#FFFFFF" stop-opacity="0.14489923" offset="0%"></stop>
            <stop stop-color="#FFFFFF" stop-opacity="0.478232563" offset="46.9367825%"></stop>
            <stop stop-color="#FFFFFF" stop-opacity="0.659391984" offset="72.4469866%"></stop>
            <stop stop-color="#FFFFFF" offset="100%"></stop>
        </linearGradient>
    </defs>
    <g id="AM/assets/iphone_video_320" stroke="none" stroke-width="1" fill="none" fill-rule="evenodd">
        <g id="AM/assets/iphone_320">
            <rect id="Rectangle-2" fill-opacity="0" fill="#FFFFFF" x="0" y="0" width="284" height="472"></rect>
            <g id="Group-42" transform="translate(2.000000, 2.000000)">
                <g id="Group-28">
                    <mask id="mask-2" fill="white">
                        <use xlink:href="#path-1"></use>
                    </mask>
                    <g id="Rectangle-24">
                        <use fill="#FFFFFF" fill-rule="evenodd" xlink:href="#path-1"></use>
                        <path stroke="#CBCBCB" stroke-width="0.699999988" d="M0.349999994,469.65 L279.65,469.65 L279.65,46.1901109 C279.65,20.8781762 259.121008,0.349999994 233.802929,0.349999994 L46.1970706,0.349999994 C20.8799605,0.349999994 0.349999994,20.8752052 0.349999994,46.1901109 L0.349999994,469.65 Z M279.65,469.65 L280,469.65 L279.65,470 L279.65,469.65 Z"></path>
                    </g>
                    <rect id="Rectangle-25" fill="url(#linearGradient-3)" mask="url(#mask-2)" x="-17.5" y="266.149994" width="349.3" height="123.794643"></rect>
                </g>
                <g id="AM/assets/iphone_status_bar_320" transform="translate(18.000000, 40.000000)" opacity="0.78979846">
                    <g id="Group-2">
                        <g id="Battery" transform="translate(203.800000, 1.098214)">
                            <g id="Icon" transform="translate(23.400000, 0.398810)">
                                <path d="M17.7334506,6.10297466 C18.1015733,6.10297466 18.4000061,5.65497466 18.4000061,5.10297466 L18.4000061,4.10297466 C18.4000061,3.55097466 18.1015733,3.10297466 17.7334506,3.10297466 L17.4000061,3.10297466 L17.4000061,6.10297466 L17.7334506,6.10297466 Z" id="Shape" fill="#000000"></path>
                                <path d="M1.68888889,1.00297619 C1.499365,1.00297619 1.3,1.24769663 1.3,1.5938357 L1.3,7.41175306 C1.3,7.75821831 1.49934961,8.00297619 1.68888889,8.00297619 L15.9111111,8.00297619 C16.1004869,8.00297619 16.3,7.75807391 16.3,7.41175306 L16.3,1.5938357 C16.3,1.24769663 16.100635,1.00297619 15.9111111,1.00297619 L1.68888889,1.00297619 Z" id="Shape" stroke="#000000"></path>
                                <rect id="Rectangle-15" fill="#000000" x="2.8" y="2.50297619" width="12" height="4" rx="0.349999994"></rect>
                            </g>
                            <path d="M2.25963509,8 L1.54563511,8 L1.54563511,3.73280007 L3.51321196e-05,3.73280007 L3.51321196e-05,3.16160008 C0.201636137,3.16160008 0.397634173,3.14620024 0.588035122,3.11540008 C0.778436071,3.08459993 0.950634346,3.0272005 1.10463511,2.94320009 C1.25863588,2.85919967 1.38883458,2.74440082 1.49523511,2.59880009 C1.60163564,2.45319937 1.67443491,2.26840122 1.7136351,2.0444001 L2.25963509,2.0444001 L2.25963509,8 Z M4.31800028,5.06840005 C4.31800028,5.29240117 4.32500021,5.54299866 4.33900028,5.82020004 C4.35300035,6.09740142 4.3977999,6.35779881 4.47340028,6.60140002 C4.54900066,6.84500124 4.67079944,7.05079918 4.83880027,7.21880001 C5.00680111,7.38680085 5.24199876,7.47080001 5.54440026,7.47080001 C5.84680177,7.47080001 6.08199941,7.38680085 6.25000025,7.21880001 C6.41800109,7.05079918 6.53979987,6.84500124 6.61540024,6.60140002 C6.69100062,6.35779881 6.73580017,6.09740142 6.74980024,5.82020004 C6.76380031,5.54299866 6.77080024,5.29240117 6.77080024,5.06840005 C6.77080024,4.92279932 6.76940026,4.76180094 6.76660024,4.58540006 C6.76380023,4.40899918 6.74980037,4.23260095 6.72460024,4.05620007 C6.69940012,3.87979919 6.66300048,3.70760091 6.61540024,3.53960008 C6.56780001,3.37159924 6.49780071,3.22460071 6.40540025,3.09860008 C6.31299979,2.97259946 6.19680095,2.87040048 6.05680025,2.79200009 C5.91679956,2.7135997 5.74600127,2.67440009 5.54440026,2.67440009 C5.34279926,2.67440009 5.17200097,2.7135997 5.03200027,2.79200009 C4.89199957,2.87040048 4.77580074,2.97259946 4.68340028,3.09860008 C4.59099982,3.22460071 4.52100052,3.37159924 4.47340028,3.53960008 C4.42580004,3.70760091 4.38940041,3.87979919 4.36420028,4.05620007 C4.33900016,4.23260095 4.3250003,4.40899918 4.32220028,4.58540006 C4.31940027,4.76180094 4.31800028,4.92279932 4.31800028,5.06840005 Z M3.5620003,5.07680005 C3.5620003,4.85839896 3.56760024,4.63160123 3.5788003,4.39640006 C3.59000035,4.16119889 3.61800007,3.93160119 3.66280029,3.70760007 C3.70760052,3.48359896 3.77199987,3.27080109 3.85600029,3.06920008 C3.94000071,2.86759908 4.05479956,2.69120085 4.20040029,2.54000009 C4.34600101,2.38879934 4.52939917,2.26840055 4.75060028,2.1788001 C4.97180138,2.08919965 5.23639873,2.0444001 5.54440026,2.0444001 C5.8524018,2.0444001 6.11699915,2.08919965 6.33820025,2.1788001 C6.55940135,2.26840055 6.74279951,2.38879934 6.88840024,2.54000009 C7.03400096,2.69120085 7.14879982,2.86759908 7.23280023,3.06920008 C7.31680065,3.27080109 7.38120001,3.48359896 7.42600023,3.70760007 C7.47080045,3.93160119 7.49880017,4.16119889 7.51000023,4.39640006 C7.52120028,4.63160123 7.52680023,4.85839896 7.52680023,5.07680005 C7.52680023,5.29520114 7.52120028,5.52199887 7.51000023,5.75720004 C7.49880017,5.99240121 7.47080045,6.22199891 7.42600023,6.44600003 C7.38120001,6.67000114 7.31680065,6.88139903 7.23280023,7.08020002 C7.14879982,7.27900101 7.03400096,7.45399925 6.88840024,7.60520001 C6.74279951,7.75640076 6.56080134,7.87539957 6.34240025,7.9622 C6.12399916,8.04900043 5.85800183,8.0924 5.54440026,8.0924 C5.23639873,8.0924 4.97180138,8.04900043 4.75060028,7.9622 C4.52939917,7.87539957 4.34600101,7.75640076 4.20040029,7.60520001 C4.05479956,7.45399925 3.94000071,7.27900101 3.85600029,7.08020002 C3.77199987,6.88139903 3.70760052,6.67000114 3.66280029,6.44600003 C3.61800007,6.22199891 3.59000035,5.99240121 3.5788003,5.75720004 C3.56760024,5.52199887 3.5620003,5.29520114 3.5620003,5.07680005 Z M8.9884002,5.06840005 C8.9884002,5.29240117 8.99540013,5.54299866 9.0094002,5.82020004 C9.02340027,6.09740142 9.06819982,6.35779881 9.1438002,6.60140002 C9.21940058,6.84500124 9.34119936,7.05079918 9.50920019,7.21880001 C9.67720103,7.38680085 9.91239868,7.47080001 10.2148002,7.47080001 C10.5172017,7.47080001 10.7523993,7.38680085 10.9204002,7.21880001 C11.088401,7.05079918 11.2101998,6.84500124 11.2858002,6.60140002 C11.3614005,6.35779881 11.4062001,6.09740142 11.4202002,5.82020004 C11.4342002,5.54299866 11.4412002,5.29240117 11.4412002,5.06840005 C11.4412002,4.92279932 11.4398002,4.76180094 11.4370002,4.58540006 C11.4342001,4.40899918 11.4202003,4.23260095 11.3950002,4.05620007 C11.3698,3.87979919 11.3334004,3.70760091 11.2858002,3.53960008 C11.2381999,3.37159924 11.1682006,3.22460071 11.0758002,3.09860008 C10.9833997,2.97259946 10.8672009,2.87040048 10.7272002,2.79200009 C10.5871995,2.7135997 10.4164012,2.67440009 10.2148002,2.67440009 C10.0131992,2.67440009 9.84240089,2.7135997 9.70240019,2.79200009 C9.56239949,2.87040048 9.44620066,2.97259946 9.3538002,3.09860008 C9.26139974,3.22460071 9.19140044,3.37159924 9.1438002,3.53960008 C9.09619996,3.70760091 9.05980033,3.87979919 9.0346002,4.05620007 C9.00940008,4.23260095 8.99540022,4.40899918 8.9926002,4.58540006 C8.98980019,4.76180094 8.9884002,4.92279932 8.9884002,5.06840005 Z M8.23240022,5.07680005 C8.23240022,4.85839896 8.23800016,4.63160123 8.24920022,4.39640006 C8.26040027,4.16119889 8.28839999,3.93160119 8.33320021,3.70760007 C8.37800044,3.48359896 8.44239979,3.27080109 8.52640021,3.06920008 C8.61040063,2.86759908 8.72519948,2.69120085 8.87080021,2.54000009 C9.01640093,2.38879934 9.19979909,2.26840055 9.4210002,2.1788001 C9.6422013,2.08919965 9.90679865,2.0444001 10.2148002,2.0444001 C10.5228017,2.0444001 10.7873991,2.08919965 11.0086002,2.1788001 C11.2298013,2.26840055 11.4131994,2.38879934 11.5588002,2.54000009 C11.7044009,2.69120085 11.8191997,2.86759908 11.9032002,3.06920008 C11.9872006,3.27080109 12.0515999,3.48359896 12.0964002,3.70760007 C12.1412004,3.93160119 12.1692001,4.16119889 12.1804001,4.39640006 C12.1916002,4.63160123 12.1972001,4.85839896 12.1972001,5.07680005 C12.1972001,5.29520114 12.1916002,5.52199887 12.1804001,5.75720004 C12.1692001,5.99240121 12.1412004,6.22199891 12.0964002,6.44600003 C12.0515999,6.67000114 11.9872006,6.88139903 11.9032002,7.08020002 C11.8191997,7.27900101 11.7044009,7.45399925 11.5588002,7.60520001 C11.4131994,7.75640076 11.2312013,7.87539957 11.0128002,7.9622 C10.7943991,8.04900043 10.5284017,8.0924 10.2148002,8.0924 C9.90679865,8.0924 9.6422013,8.04900043 9.4210002,7.9622 C9.19979909,7.87539957 9.01640093,7.75640076 8.87080021,7.60520001 C8.72519948,7.45399925 8.61040063,7.27900101 8.52640021,7.08020002 C8.44239979,6.88139903 8.37800044,6.67000114 8.33320021,6.44600003 C8.28839999,6.22199891 8.26040027,5.99240121 8.24920022,5.75720004 C8.23800016,5.52199887 8.23240022,5.29520114 8.23240022,5.07680005 Z M13.9528001,3.73280007 C13.9528001,3.85600069 13.9598,3.98899935 13.9738001,4.13180007 C13.9878002,4.27460078 14.0199999,4.40619946 14.0704001,4.52660006 C14.1208004,4.64700066 14.1921997,4.74779965 14.2846001,4.82900005 C14.3770006,4.91020046 14.5015993,4.95080005 14.6584001,4.95080005 C14.8208009,4.95080005 14.9495996,4.91160044 15.0448001,4.83320005 C15.1400006,4.75479966 15.2141998,4.65540066 15.2674001,4.53500006 C15.3206004,4.41459946 15.3556,4.28160079 15.3724001,4.13600007 C15.3892002,3.99039934 15.3976001,3.85320071 15.3976001,3.72440007 C15.3976001,3.60119946 15.3906002,3.46820079 15.3766001,3.32540008 C15.3626,3.18259937 15.3304003,3.05100069 15.2800001,2.93060009 C15.2295998,2.81019949 15.1582006,2.7094005 15.0658001,2.62820009 C14.9733996,2.54699969 14.8460009,2.50640009 14.6836001,2.50640009 C14.5267993,2.50640009 14.4008006,2.54699969 14.3056001,2.62820009 C14.2103996,2.7094005 14.1362004,2.81019949 14.0830001,2.93060009 C14.0297999,3.05100069 13.9948002,3.18259937 13.9780001,3.32540008 C13.9612,3.46820079 13.9528001,3.60399943 13.9528001,3.73280007 Z M13.3228001,3.74960007 C13.3228001,3.51999893 13.3451999,3.3030011 13.3900001,3.09860008 C13.4348004,2.89419906 13.5103996,2.71360087 13.6168001,2.55680009 C13.7232007,2.39999931 13.8631993,2.27540056 14.0368001,2.1830001 C14.210401,2.09059964 14.4259988,2.0444001 14.6836001,2.0444001 C14.9468014,2.0444001 15.1637992,2.08919965 15.3346001,2.1788001 C15.5054009,2.26840055 15.6425996,2.38879934 15.7462001,2.54000009 C15.8498006,2.69120085 15.9225999,2.86899907 15.9646001,3.07340008 C16.0066003,3.2778011 16.0276001,3.49479893 16.0276001,3.72440007 C16.0276001,3.94280116 16.0038003,4.15419904 15.9562001,4.35860006 C15.9085998,4.56300108 15.8302006,4.74219929 15.7210001,4.89620005 C15.6117995,5.05020082 15.4732009,5.17479957 15.3052001,5.27000005 C15.1371993,5.36520052 14.9300013,5.41280004 14.6836001,5.41280004 C14.4315989,5.41280004 14.218801,5.36940048 14.0452001,5.28260005 C13.8715993,5.19579961 13.7316007,5.07680081 13.6252001,4.92560005 C13.5187996,4.7743993 13.4418004,4.59800107 13.3942001,4.39640006 C13.3465999,4.19479906 13.3228001,3.97920122 13.3228001,3.74960007 Z M18.1024,6.42080003 C18.1024,6.54400064 18.1094,6.67699931 18.1234,6.81980002 C18.1374001,6.96260073 18.1695998,7.09419941 18.22,7.21460001 C18.2704003,7.33500061 18.3417996,7.4357996 18.4342,7.51700001 C18.5266005,7.59820041 18.6511993,7.63880001 18.808,7.63880001 C18.9704008,7.63880001 19.0991996,7.5996004 19.1944,7.52120001 C19.2896005,7.44279962 19.3637998,7.34340061 19.417,7.22300001 C19.4702003,7.10259941 19.5051999,6.96960075 19.522,6.82400002 C19.5388001,6.67839929 19.5472,6.54120067 19.5472,6.41240003 C19.5472,6.28919941 19.5402001,6.15620075 19.5262,6.01340003 C19.5122,5.87059932 19.4800003,5.73900064 19.4296,5.61860004 C19.3791998,5.49819944 19.3078005,5.39740045 19.2154,5.31620005 C19.1229996,5.23499964 18.9956008,5.19440005 18.8332,5.19440005 C18.6763993,5.19440005 18.5504005,5.23499964 18.4552,5.31620005 C18.3599996,5.39740045 18.2858003,5.49819944 18.2326,5.61860004 C18.1793998,5.73900064 18.1444001,5.87059932 18.1276,6.01340003 C18.1108,6.15620075 18.1024,6.29199939 18.1024,6.42080003 Z M17.4724001,6.43760003 C17.4724001,6.20799888 17.4947998,5.99100106 17.5396001,5.78660004 C17.5844003,5.58219902 17.6599995,5.40160083 17.7664001,5.24480005 C17.8728006,5.08799927 18.0127992,4.96340051 18.1864,4.87100005 C18.3600009,4.77859959 18.5755988,4.73240006 18.8332,4.73240006 C19.0964013,4.73240006 19.3133992,4.77719961 19.4842,4.86680005 C19.6550009,4.9564005 19.7921995,5.07679929 19.8958,5.22800005 C19.9994005,5.3792008 20.0721998,5.55699902 20.1142,5.76140004 C20.1562002,5.96580106 20.1772,6.18279888 20.1772,6.41240003 C20.1772,6.63080112 20.1534003,6.842199 20.1058,7.04660002 C20.0581998,7.25100103 19.9798006,7.43019924 19.8706,7.58420001 C19.7613995,7.73820077 19.6228009,7.86139954 19.4548,7.9538 C19.2867992,8.04620046 19.0796013,8.0924 18.8332,8.0924 C18.5811988,8.0924 18.3684009,8.04900043 18.1948,7.9622 C18.0211992,7.87539957 17.8812006,7.75780075 17.7748001,7.60940001 C17.6683995,7.46099927 17.5914003,7.28600102 17.5438001,7.08440002 C17.4961998,6.88279901 17.4724001,6.66720117 17.4724001,6.43760003 Z M18.6484,1.9352001 L19.3624,1.9352001 L14.8516001,8.1764 L14.1292001,8.1764 L18.6484,1.9352001 Z" id="100%" fill="#000000"></path>
                        </g>
                        <g id="Time" transform="translate(112.000000, 2.000000)" fill="#000000">
                            <path d="M2.34039995,6.39880952 L1.62639996,6.39880952 L1.62639996,2.1316096 L0.0807999876,2.1316096 L0.0807999876,1.56040961 C0.282400992,1.56040961 0.478399029,1.54500976 0.668799978,1.51420961 C0.859200926,1.48340945 1.0313992,1.42601003 1.18539997,1.34200961 C1.33940074,1.25800919 1.46959943,1.14321034 1.57599996,0.997609616 C1.68240049,0.85200889 1.75519976,0.667210741 1.79439996,0.443209625 L2.34039995,0.443209625 L2.34039995,6.39880952 Z M4.53919993,3.46720957 C4.53919993,3.69121069 4.54619986,3.94180818 4.56019993,4.21900956 C4.5742,4.49621094 4.61899955,4.75660833 4.69459993,5.00020955 C4.7702003,5.24381076 4.89199908,5.4496087 5.05999992,5.61760954 C5.22800076,5.78561037 5.4631984,5.86960953 5.76559991,5.86960953 C6.06800141,5.86960953 6.30319906,5.78561037 6.47119989,5.61760954 C6.63920073,5.4496087 6.76099951,5.24381076 6.83659989,5.00020955 C6.91220027,4.75660833 6.95699982,4.49621094 6.97099989,4.21900956 C6.98499996,3.94180818 6.99199989,3.69121069 6.99199989,3.46720957 C6.99199989,3.32160885 6.9905999,3.16061046 6.98779989,2.98420958 C6.98499987,2.8078087 6.97100001,2.63141047 6.94579989,2.45500959 C6.92059976,2.27860871 6.88420013,2.10641044 6.83659989,1.9384096 C6.78899965,1.77040876 6.71900035,1.62341024 6.62659989,1.49740961 C6.53419943,1.37140898 6.4180006,1.26921 6.2779999,1.19080961 C6.1379992,1.11240922 5.96720091,1.07320961 5.76559991,1.07320961 C5.5639989,1.07320961 5.39320061,1.11240922 5.25319992,1.19080961 C5.11319922,1.26921 4.99700038,1.37140898 4.90459992,1.49740961 C4.81219946,1.62341024 4.74220016,1.77040876 4.69459993,1.9384096 C4.64699969,2.10641044 4.61060005,2.27860871 4.58539993,2.45500959 C4.5601998,2.63141047 4.54619994,2.8078087 4.54339993,2.98420958 C4.54059991,3.16061046 4.53919993,3.32160885 4.53919993,3.46720957 Z M3.78319994,3.47560957 C3.78319994,3.25720849 3.78879988,3.03041076 3.79999994,2.79520959 C3.8112,2.56000841 3.83919972,2.33041071 3.88399994,2.1064096 C3.92880016,1.88240848 3.99319952,1.66961061 4.07719994,1.46800961 C4.16120035,1.2664086 4.2759992,1.09001037 4.42159993,0.938809617 C4.56720066,0.787608863 4.75059882,0.667210069 4.97179992,0.577609623 C5.19300102,0.488009176 5.45759837,0.443209625 5.76559991,0.443209625 C6.07360144,0.443209625 6.33819879,0.488009176 6.55939989,0.577609623 C6.780601,0.667210069 6.96399916,0.787608863 7.10959988,0.938809617 C7.25520061,1.09001037 7.36999946,1.2664086 7.45399988,1.46800961 C7.5380003,1.66961061 7.60239965,1.88240848 7.64719987,2.1064096 C7.6920001,2.33041071 7.71999982,2.56000841 7.73119987,2.79520959 C7.74239993,3.03041076 7.74799987,3.25720849 7.74799987,3.47560957 C7.74799987,3.69401066 7.74239993,3.92080839 7.73119987,4.15600956 C7.71999982,4.39121073 7.6920001,4.62080843 7.64719987,4.84480955 C7.60239965,5.06881067 7.5380003,5.28020855 7.45399988,5.47900954 C7.36999946,5.67781053 7.25520061,5.85280878 7.10959988,6.00400953 C6.96399916,6.15521028 6.78200098,6.27420909 6.56359989,6.36100952 C6.34519881,6.44780996 6.07920147,6.49120952 5.76559991,6.49120952 C5.45759837,6.49120952 5.19300102,6.44780996 4.97179992,6.36100952 C4.75059882,6.27420909 4.56720066,6.15521028 4.42159993,6.00400953 C4.2759992,5.85280878 4.16120035,5.67781053 4.07719994,5.47900954 C3.99319952,5.28020855 3.92880016,5.06881067 3.88399994,4.84480955 C3.83919972,4.62080843 3.8112,4.39121073 3.79999994,4.15600956 C3.78879988,3.92080839 3.78319994,3.69401066 3.78319994,3.47560957 Z" id="10"></path>
                            <path d="M13.0588,3.46720957 C13.0588,3.69121069 13.0657999,3.94180818 13.0798,4.21900956 C13.0938001,4.49621094 13.1385996,4.75660833 13.2142,5.00020955 C13.2898004,5.24381076 13.4115991,5.4496087 13.5796,5.61760954 C13.7476008,5.78561037 13.9827985,5.86960953 14.2852,5.86960953 C14.5876015,5.86960953 14.8227991,5.78561037 14.9907999,5.61760954 C15.1588008,5.4496087 15.2805996,5.24381076 15.3561999,5.00020955 C15.4318003,4.75660833 15.4765999,4.49621094 15.4905999,4.21900956 C15.5046,3.94180818 15.5115999,3.69121069 15.5115999,3.46720957 C15.5115999,3.32160885 15.5102,3.16061046 15.5073999,2.98420958 C15.5045999,2.8078087 15.4906001,2.63141047 15.4653999,2.45500959 C15.4401998,2.27860871 15.4038002,2.10641044 15.3561999,1.9384096 C15.3085997,1.77040876 15.2386004,1.62341024 15.1461999,1.49740961 C15.0537995,1.37140898 14.9376006,1.26921 14.7976,1.19080961 C14.6575993,1.11240922 14.486801,1.07320961 14.2852,1.07320961 C14.083599,1.07320961 13.9128007,1.11240922 13.7728,1.19080961 C13.6327993,1.26921 13.5166004,1.37140898 13.4242,1.49740961 C13.3317995,1.62341024 13.2618002,1.77040876 13.2142,1.9384096 C13.1665997,2.10641044 13.1302001,2.27860871 13.105,2.45500959 C13.0797999,2.63141047 13.0658,2.8078087 13.063,2.98420958 C13.0602,3.16061046 13.0588,3.32160885 13.0588,3.46720957 Z M12.3028,3.47560957 C12.3028,3.25720849 12.3083999,3.03041076 12.3196,2.79520959 C12.3308,2.56000841 12.3587998,2.33041071 12.4036,2.1064096 C12.4484002,1.88240848 12.5127996,1.66961061 12.5968,1.46800961 C12.6808004,1.2664086 12.7955993,1.09001037 12.9412,0.938809617 C13.0868007,0.787608863 13.2701989,0.667210069 13.4914,0.577609623 C13.7126011,0.488009176 13.9771984,0.443209625 14.2852,0.443209625 C14.5932015,0.443209625 14.8577988,0.488009176 15.0789999,0.577609623 C15.300201,0.667210069 15.4835992,0.787608863 15.6291999,0.938809617 C15.7748007,1.09001037 15.8895995,1.2664086 15.9735999,1.46800961 C16.0576004,1.66961061 16.1219997,1.88240848 16.1667999,2.1064096 C16.2116002,2.33041071 16.2395999,2.56000841 16.2507999,2.79520959 C16.262,3.03041076 16.2675999,3.25720849 16.2675999,3.47560957 C16.2675999,3.69401066 16.262,3.92080839 16.2507999,4.15600956 C16.2395999,4.39121073 16.2116002,4.62080843 16.1667999,4.84480955 C16.1219997,5.06881067 16.0576004,5.28020855 15.9735999,5.47900954 C15.8895995,5.67781053 15.7748007,5.85280878 15.6291999,6.00400953 C15.4835992,6.15521028 15.301601,6.27420909 15.0831999,6.36100952 C14.8647989,6.44780996 14.5988015,6.49120952 14.2852,6.49120952 C13.9771984,6.49120952 13.7126011,6.44780996 13.4914,6.36100952 C13.2701989,6.27420909 13.0868007,6.15521028 12.9412,6.00400953 C12.7955993,5.85280878 12.6808004,5.67781053 12.5968,5.47900954 C12.5127996,5.28020855 12.4484002,5.06881067 12.4036,4.84480955 C12.3587998,4.62080843 12.3308,4.39121073 12.3196,4.15600956 C12.3083999,3.92080839 12.3028,3.69401066 12.3028,3.47560957 Z M17.8391999,3.46720957 C17.8391999,3.69121069 17.8461998,3.94180818 17.8601999,4.21900956 C17.8742,4.49621094 17.9189995,4.75660833 17.9945999,5.00020955 C18.0702003,5.24381076 18.1919991,5.4496087 18.3599999,5.61760954 C18.5280007,5.78561037 18.7631984,5.86960953 19.0655999,5.86960953 C19.3680014,5.86960953 19.603199,5.78561037 19.7711999,5.61760954 C19.9392007,5.4496087 20.0609995,5.24381076 20.1365999,5.00020955 C20.2122002,4.75660833 20.2569998,4.49621094 20.2709999,4.21900956 C20.2849999,3.94180818 20.2919999,3.69121069 20.2919999,3.46720957 C20.2919999,3.32160885 20.2905999,3.16061046 20.2877999,2.98420958 C20.2849998,2.8078087 20.271,2.63141047 20.2457999,2.45500959 C20.2205997,2.27860871 20.1842001,2.10641044 20.1365999,1.9384096 C20.0889996,1.77040876 20.0190003,1.62341024 19.9265999,1.49740961 C19.8341994,1.37140898 19.7180006,1.26921 19.5779999,1.19080961 C19.4379992,1.11240922 19.2672009,1.07320961 19.0655999,1.07320961 C18.8639989,1.07320961 18.6932006,1.11240922 18.5531999,1.19080961 C18.4131992,1.26921 18.2970004,1.37140898 18.2045999,1.49740961 C18.1121994,1.62341024 18.0422001,1.77040876 17.9945999,1.9384096 C17.9469997,2.10641044 17.9106,2.27860871 17.8853999,2.45500959 C17.8601998,2.63141047 17.8461999,2.8078087 17.8433999,2.98420958 C17.8405999,3.16061046 17.8391999,3.32160885 17.8391999,3.46720957 Z M17.0831999,3.47560957 C17.0831999,3.25720849 17.0887999,3.03041076 17.0999999,2.79520959 C17.1112,2.56000841 17.1391997,2.33041071 17.1839999,2.1064096 C17.2288001,1.88240848 17.2931995,1.66961061 17.3771999,1.46800961 C17.4612003,1.2664086 17.5759992,1.09001037 17.7215999,0.938809617 C17.8672006,0.787608863 18.0505988,0.667210069 18.2717999,0.577609623 C18.493001,0.488009176 18.7575983,0.443209625 19.0655999,0.443209625 C19.3736014,0.443209625 19.6381988,0.488009176 19.8593999,0.577609623 C20.080601,0.667210069 20.2639991,0.787608863 20.4095999,0.938809617 C20.5552006,1.09001037 20.6699994,1.2664086 20.7539999,1.46800961 C20.8380003,1.66961061 20.9023996,1.88240848 20.9471998,2.1064096 C20.9920001,2.33041071 21.0199998,2.56000841 21.0311998,2.79520959 C21.0423999,3.03041076 21.0479998,3.25720849 21.0479998,3.47560957 C21.0479998,3.69401066 21.0423999,3.92080839 21.0311998,4.15600956 C21.0199998,4.39121073 20.9920001,4.62080843 20.9471998,4.84480955 C20.9023996,5.06881067 20.8380003,5.28020855 20.7539999,5.47900954 C20.6699994,5.67781053 20.5552006,5.85280878 20.4095999,6.00400953 C20.2639991,6.15521028 20.082001,6.27420909 19.8635999,6.36100952 C19.6451988,6.44780996 19.3792014,6.49120952 19.0655999,6.49120952 C18.7575983,6.49120952 18.493001,6.44780996 18.2717999,6.36100952 C18.0505988,6.27420909 17.8672006,6.15521028 17.7215999,6.00400953 C17.5759992,5.85280878 17.4612003,5.67781053 17.3771999,5.47900954 C17.2931995,5.28020855 17.2288001,5.06881067 17.1839999,4.84480955 C17.1391997,4.62080843 17.1112,4.39121073 17.0999999,4.15600956 C17.0887999,3.92080839 17.0831999,3.69401066 17.0831999,3.47560957 Z" id="00"></path>
                            <path d="M10.414952,2.54388721 L9.51106417,2.54388721 L9.51106417,1.63999939 L10.414952,1.63999939 L10.414952,2.54388721 Z M9.51106417,4.94611161 L10.414952,4.94611161 L10.414952,5.84999943 L9.51106417,5.84999943 L9.51106417,4.94611161 Z" id=":"></path>
                        </g>
                        <g id="Carrier" transform="translate(0.000000, 0.147321)">
                            <path d="M29.8476,5.97560003 L29.8476,3.06080008 L29.8308,3.06080008 L27.8484,5.97560003 L29.8476,5.97560003 Z M30.5195999,5.97560003 L31.3259999,5.97560003 L31.3259999,6.60560002 L30.5195999,6.60560002 L30.5195999,8 L29.8476,8 L29.8476,6.60560002 L27.2352,6.60560002 L27.2352,5.91680004 L29.9483999,2.0444001 L30.5195999,2.0444001 L30.5195999,5.97560003 Z M37.1511998,7.25240001 C36.9159987,7.56600158 36.6248016,7.79139932 36.2775999,7.9286 C35.9303981,8.06580068 35.5804016,8.1344 35.2275999,8.1344 C34.7795976,8.1344 34.3792016,8.05180083 34.0263999,7.8866 C33.6735981,7.72139918 33.3740011,7.49880141 33.1275999,7.21880001 C32.8811987,6.93879862 32.6936006,6.61680184 32.5647999,6.25280003 C32.4359993,5.88879822 32.3715999,5.510802 32.3715999,5.11880005 C32.3715999,4.68199787 32.4317993,4.26620204 32.5521999,3.87140007 C32.6726005,3.4765981 32.8517987,3.13080157 33.0897999,2.83400009 C33.3278011,2.53719861 33.6245981,2.30060098 33.9801999,2.1242001 C34.3358017,1.94779922 34.7515975,1.8596001 35.2275999,1.8596001 C35.5524015,1.8596001 35.8589984,1.89739973 36.1473999,1.9730001 C36.4358013,2.04860048 36.6933987,2.16759929 36.9201998,2.3300001 C37.147001,2.49240091 37.3373991,2.69819884 37.4913998,2.94740009 C37.6454006,3.19660133 37.7503995,3.49759831 37.8063998,3.85040007 L37.0083998,3.85040007 C36.9691996,3.62079893 36.8964004,3.4234009 36.7899998,3.25820008 C36.6835993,3.09299926 36.5520006,2.95720062 36.3951998,2.85080009 C36.2383991,2.74439956 36.0606008,2.66460036 35.8617999,2.61140009 C35.6629989,2.55819983 35.451601,2.53160009 35.2275999,2.53160009 C34.8635981,2.53160009 34.5514012,2.60439936 34.2909999,2.75000009 C34.0305986,2.89560081 33.8178007,3.08739889 33.6525999,3.32540008 C33.4873991,3.56340127 33.3656003,3.83499854 33.2871999,4.14020007 C33.2087995,4.44540159 33.1695999,4.75759846 33.1695999,5.07680005 C33.1695999,5.39040161 33.2143995,5.6913986 33.3039999,5.97980003 C33.3936003,6.26820147 33.525199,6.52299892 33.6987999,6.74420002 C33.8724008,6.96540112 34.0865986,7.14179936 34.3413999,7.27340001 C34.5962012,7.40500067 34.8915982,7.47080001 35.2275999,7.47080001 C35.5412014,7.47080001 35.8183987,7.42040051 36.0591999,7.31960001 C36.3000011,7.21879951 36.502999,7.0802009 36.6681998,6.90380002 C36.8334007,6.72739914 36.9579994,6.52020122 37.0419998,6.28220003 C37.1260003,6.04419884 37.1623999,5.78800141 37.1511998,5.51360004 L35.2359999,5.51360004 L35.2359999,4.84160005 L37.8651998,4.84160005 L37.8651998,8 L37.3611998,8 L37.1511998,7.25240001 Z" id="4G" fill="#000000"></path>
                            <g id="Signal" transform="translate(0.000000, 3.748512)">
                                <path d="M1.94207317,0 C3.01465244,0 3.88442378,0.861117134 3.88442378,1.9233631 C3.88442378,2.98560906 3.01492988,3.84672619 1.94207317,3.84672619 C0.869493902,3.84672619 0,2.98588382 0,1.9233631 C0,0.861117134 0.869771341,0 1.94207317,0 L1.94207317,0 Z" id="Shape" fill="#000000"></path>
                                <path d="M6.84207317,0 C7.91465244,0 8.78414634,0.861117134 8.78414634,1.9233631 C8.78414634,2.98560906 7.91465244,3.84672619 6.84207317,3.84672619 C5.7694939,3.84672619 4.9,2.98588382 4.9,1.9233631 C4.9,0.861117134 5.7694939,0 6.84207317,0 L6.84207317,0 Z" id="Shape" fill="#000000"></path>
                                <path d="M11.724722,0 C12.7973012,0 13.6667951,0.861117134 13.6667951,1.9233631 C13.6667951,2.98560906 12.7973012,3.84672619 11.724722,3.84672619 C10.6524201,3.84672619 9.78292624,2.98588382 9.78292624,1.9233631 C9.78264881,0.861117134 10.6521427,0 11.724722,0 L11.724722,0 Z" id="Shape" fill="#000000"></path>
                                <path d="M16.6420732,0 C17.7146524,0 18.5841463,0.861117134 18.5841463,1.9233631 C18.5841463,2.98560906 17.7149299,3.84672619 16.6420732,3.84672619 C15.5694939,3.84672619 14.7,2.98588382 14.7,1.9233631 C14.7,0.861117134 15.5694939,0 16.6420732,0 L16.6420732,0 Z" id="Shape" fill="#000000"></path>
                                <path d="M23.133869,1.9233631 C23.133869,1.05517932 22.4218298,0.349999994 21.5417958,0.349999994 C20.6617419,0.349999994 19.9497733,1.05517902 19.9500001,1.9233631 C19.9500001,2.79178697 20.6617265,3.4967262 21.5417958,3.4967262 C22.4218298,3.4967262 23.133869,2.79154687 23.133869,1.9233631 Z" id="Shape" stroke="#000000" stroke-width="0.699999988"></path>
                            </g>
                        </g>
                    </g>
                </g>
            </g>
        </g>
    </g>
</svg>