<?xml version="1.0" encoding="UTF-8"?>
<svg width="404px" height="486px" viewBox="0 0 404 486" version="1.1" xmlns="http://www.w3.org/2000/svg" xmlns:xlink="http://www.w3.org/1999/xlink">
    <!-- Generator: Sketch 49.3 (51167) - http://www.bohemiancoding.com/sketch -->
    <title>AM/assets/iphone_video_1440</title>
    <desc>Created with Sketch.</desc>
    <defs>
        <path d="M0,66.0035598 C0,29.5508003 29.5550712,0 65.9958151,0 L334.004185,0 C370.452667,0 400,29.5514282 400,66.0035598 L400,672 L0,672 L0,66.0035598 Z" id="path-1"></path>
        <linearGradient x1="50%" y1="0%" x2="50%" y2="52.241087%" id="linearGradient-3">
            <stop stop-color="#FFFFFF" stop-opacity="0.14489923" offset="0%"></stop>
            <stop stop-color="#FFFFFF" stop-opacity="0.478232563" offset="46.9367825%"></stop>
            <stop stop-color="#FFFFFF" stop-opacity="0.659391984" offset="72.4469866%"></stop>
            <stop stop-color="#FFFFFF" offset="100%"></stop>
        </linearGradient>
    </defs>
    <g id="AM/assets/iphone_video_1440" stroke="none" stroke-width="1" fill="none" fill-rule="evenodd">
        <g id="AM/assets/iphone_1440">
            <rect id="Rectangle" fill-opacity="0" fill="#FFFFFF" x="0" y="0" width="404" height="674"></rect>
            <g id="Group-42" transform="translate(2.000000, 2.000000)">
                <g id="Group-28">
                    <mask id="mask-2" fill="white">
                        <use xlink:href="#path-1"></use>
                    </mask>
                    <g id="Rectangle-24">
                        <use fill="#FFFFFF" fill-rule="evenodd" xlink:href="#path-1"></use>
                        <path stroke="#CBCBCB" stroke-width="0.999999983" d="M0.499999991,671.5 L399.5,671.5 L399.5,66.0035598 C399.5,29.8273399 370.176294,0.499999991 334.004185,0.499999991 L65.9958151,0.499999991 C29.828545,0.499999991 0.499999991,29.8296113 0.499999991,66.0035598 L0.499999991,671.5 Z"></path>
                    </g>
                    <rect id="Rectangle-25" fill="url(#linearGradient-3)" mask="url(#mask-2)" x="-25" y="380" width="499" height="177"></rect>
                </g>
                <g id="AM/assets/iphone_status_bar_1440" transform="translate(24.000000, 56.000000)" opacity="0.78979846">
                    <g id="Group-2">
                        <g id="Battery" transform="translate(290.571429, 4.823117)">
                            <g id="Icon" transform="translate(35.428571, -0.000000)">
                                <path d="M23.4957057,6.5 C24.0477057,6.5 24.4952057,5.97733333 24.4952057,5.33333333 L24.4952057,4.16666667 C24.4952057,3.52266667 24.0477057,3 23.4957057,3 L22.9957057,3 L22.9957057,6.5 L23.4957057,6.5 Z" id="Shape" fill="#000000"></path>
                                <path d="M1.22222222,0.676882653 C0.823914588,0.676882653 0.499999991,1.00219584 0.499999991,1.40409961 L0.499999991,7.94925664 C0.499999991,8.35153187 0.823877481,8.67688267 1.22222222,8.67688267 L20.7777778,8.67688267 C21.1758817,8.67688267 21.5,8.35136491 21.5,7.94925664 L21.5,1.40409961 C21.5,1.00219584 21.1760854,0.676882653 20.7777778,0.676882653 L1.22222222,0.676882653 Z" id="Shape" stroke="#000000" stroke-width="0.999999983"></path>
                                <rect id="Rectangle-15" fill="#000000" x="2" y="2.17688266" width="18" height="5" rx="0.499999991"></rect>
                            </g>
                            <path d="M3.79947872,9 L2.77947874,9 L2.77947874,2.9040001 L0.571478778,2.9040001 L0.571478778,2.08800012 C0.859480213,2.08800012 1.13947741,2.06600034 1.41147876,2.02200012 C1.68348012,1.9779999 1.92947765,1.89600072 2.14947875,1.77600012 C2.36947985,1.65599953 2.55547798,1.49200117 2.70747874,1.28400013 C2.8594795,1.07599909 2.96347846,0.812001739 3.01947874,0.492000145 L3.79947872,0.492000145 L3.79947872,9 Z M6.7400004,4.81200007 C6.7400004,5.13200167 6.7500003,5.48999808 6.7700004,5.88600005 C6.7900005,6.28200203 6.85399986,6.6539983 6.9620004,7.00200003 C7.07000094,7.35000177 7.2439992,7.64399882 7.48400039,7.88400002 C7.72400159,8.12400121 8.05999822,8.24400001 8.49200037,8.24400001 C8.92400253,8.24400001 9.25999916,8.12400121 9.50000036,7.88400002 C9.74000155,7.64399882 9.91399981,7.35000177 10.0220003,7.00200003 C10.1300009,6.6539983 10.1940002,6.28200203 10.2140003,5.88600005 C10.2340004,5.48999808 10.2440003,5.13200167 10.2440003,4.81200007 C10.2440003,4.60399903 10.2420004,4.37400134 10.2380003,4.12200008 C10.2340003,3.86999883 10.2140005,3.61800135 10.1780003,3.3660001 C10.1420002,3.11399884 10.0900007,2.8680013 10.0220003,2.62800011 C9.95400001,2.38799891 9.85400101,2.17800102 9.72200035,1.99800012 C9.5899997,1.81799922 9.42400136,1.67200068 9.22400036,1.56000013 C9.02399937,1.44799957 8.78000181,1.39200013 8.49200037,1.39200013 C8.20399894,1.39200013 7.96000138,1.44799957 7.76000039,1.56000013 C7.55999939,1.67200068 7.39400105,1.81799922 7.2620004,1.99800012 C7.12999974,2.17800102 7.03000074,2.38799891 6.9620004,2.62800011 C6.89400006,2.8680013 6.84200058,3.11399884 6.8060004,3.3660001 C6.77000022,3.61800135 6.75000042,3.86999883 6.7460004,4.12200008 C6.74200038,4.37400134 6.7400004,4.60399903 6.7400004,4.81200007 Z M5.66000042,4.82400007 C5.66000042,4.51199852 5.66800034,4.18800176 5.68400042,3.85200009 C5.7000005,3.51599841 5.7400001,3.1880017 5.80400042,2.8680001 C5.86800074,2.54799851 5.95999982,2.24400156 6.08000042,1.95600012 C6.20000101,1.66799868 6.36399937,1.41600121 6.57200041,1.20000013 C6.78000144,0.983999057 7.04199882,0.812000779 7.35800039,0.684000142 C7.67400197,0.555999504 8.05199818,0.492000145 8.49200037,0.492000145 C8.93200257,0.492000145 9.30999878,0.555999504 9.62600036,0.684000142 C9.94200193,0.812000779 10.2039993,0.983999057 10.4120003,1.20000013 C10.6200014,1.41600121 10.7839997,1.66799868 10.9040003,1.95600012 C11.0240009,2.24400156 11.116,2.54799851 11.1800003,2.8680001 C11.2440006,3.1880017 11.2840002,3.51599841 11.3000003,3.85200009 C11.3160004,4.18800176 11.3240003,4.51199852 11.3240003,4.82400007 C11.3240003,5.13600163 11.3160004,5.45999838 11.3000003,5.79600005 C11.2840002,6.13200173 11.2440006,6.45999844 11.1800003,6.78000004 C11.116,7.10000163 11.0240009,7.40199861 10.9040003,7.68600002 C10.7839997,7.97000144 10.6200014,8.21999893 10.4120003,8.43600001 C10.2039993,8.65200109 9.94400191,8.82199938 9.63200036,8.946 C9.3199988,9.07000062 8.94000261,9.132 8.49200037,9.132 C8.05199818,9.132 7.67400197,9.07000062 7.35800039,8.946 C7.04199882,8.82199938 6.78000144,8.65200109 6.57200041,8.43600001 C6.36399937,8.21999893 6.20000101,7.97000144 6.08000042,7.68600002 C5.95999982,7.40199861 5.86800074,7.10000163 5.80400042,6.78000004 C5.7400001,6.45999844 5.7000005,6.13200173 5.68400042,5.79600005 C5.66800034,5.45999838 5.66000042,5.13600163 5.66000042,4.82400007 Z M13.4120003,4.81200007 C13.4120003,5.13200167 13.4220002,5.48999808 13.4420003,5.88600005 C13.4620004,6.28200203 13.5259997,6.6539983 13.6340003,7.00200003 C13.7420008,7.35000177 13.9159991,7.64399882 14.1560003,7.88400002 C14.3960015,8.12400121 14.7319981,8.24400001 15.1640003,8.24400001 C15.5960024,8.24400001 15.931999,8.12400121 16.1720002,7.88400002 C16.4120014,7.64399882 16.5859997,7.35000177 16.6940002,7.00200003 C16.8020008,6.6539983 16.8660001,6.28200203 16.8860002,5.88600005 C16.9060003,5.48999808 16.9160002,5.13200167 16.9160002,4.81200007 C16.9160002,4.60399903 16.9140003,4.37400134 16.9100002,4.12200008 C16.9060002,3.86999883 16.8860004,3.61800135 16.8500002,3.3660001 C16.8140001,3.11399884 16.7620006,2.8680013 16.6940002,2.62800011 C16.6259999,2.38799891 16.5260009,2.17800102 16.3940002,1.99800012 C16.2619996,1.81799922 16.0960012,1.67200068 15.8960002,1.56000013 C15.6959993,1.44799957 15.4520017,1.39200013 15.1640003,1.39200013 C14.8759988,1.39200013 14.6320013,1.44799957 14.4320003,1.56000013 C14.2319993,1.67200068 14.0660009,1.81799922 13.9340003,1.99800012 C13.8019996,2.17800102 13.7020006,2.38799891 13.6340003,2.62800011 C13.5659999,2.8680013 13.5140005,3.11399884 13.4780003,3.3660001 C13.4420001,3.61800135 13.4220003,3.86999883 13.4180003,4.12200008 C13.4140003,4.37400134 13.4120003,4.60399903 13.4120003,4.81200007 Z M12.3320003,4.82400007 C12.3320003,4.51199852 12.3400002,4.18800176 12.3560003,3.85200009 C12.3720004,3.51599841 12.412,3.1880017 12.4760003,2.8680001 C12.5400006,2.54799851 12.6319997,2.24400156 12.7520003,1.95600012 C12.8720009,1.66799868 13.0359993,1.41600121 13.2440003,1.20000013 C13.4520013,0.983999057 13.7139987,0.812000779 14.0300003,0.684000142 C14.3460019,0.555999504 14.7239981,0.492000145 15.1640003,0.492000145 C15.6040025,0.492000145 15.9819987,0.555999504 16.2980002,0.684000142 C16.6140018,0.812000779 16.8759992,0.983999057 17.0840002,1.20000013 C17.2920013,1.41600121 17.4559996,1.66799868 17.5760002,1.95600012 C17.6960008,2.24400156 17.7879999,2.54799851 17.8520002,2.8680001 C17.9160005,3.1880017 17.9560001,3.51599841 17.9720002,3.85200009 C17.9880003,4.18800176 17.9960002,4.51199852 17.9960002,4.82400007 C17.9960002,5.13600163 17.9880003,5.45999838 17.9720002,5.79600005 C17.9560001,6.13200173 17.9160005,6.45999844 17.8520002,6.78000004 C17.7879999,7.10000163 17.6960008,7.40199861 17.5760002,7.68600002 C17.4559996,7.97000144 17.2920013,8.21999893 17.0840002,8.43600001 C16.8759992,8.65200109 16.6160018,8.82199938 16.3040002,8.946 C15.9919987,9.07000062 15.6120025,9.132 15.1640003,9.132 C14.7239981,9.132 14.3460019,9.07000062 14.0300003,8.946 C13.7139987,8.82199938 13.4520013,8.65200109 13.2440003,8.43600001 C13.0359993,8.21999893 12.8720009,7.97000144 12.7520003,7.68600002 C12.6319997,7.40199861 12.5400006,7.10000163 12.4760003,6.78000004 C12.412,6.45999844 12.3720004,6.13200173 12.3560003,5.79600005 C12.3400002,5.45999838 12.3320003,5.13600163 12.3320003,4.82400007 Z M20.5040002,2.9040001 C20.5040002,3.08000098 20.5140001,3.26999908 20.5340002,3.47400009 C20.5540003,3.67800111 20.5999998,3.86599923 20.6720002,4.03800008 C20.7440005,4.21000094 20.8459995,4.3539995 20.9780002,4.47000008 C21.1100008,4.58600066 21.287999,4.64400007 21.5120002,4.64400007 C21.7440013,4.64400007 21.9279995,4.58800064 22.0640001,4.47600008 C22.2000008,4.36399952 22.3059998,4.22200094 22.3820001,4.05000008 C22.4580005,3.87799923 22.508,3.68800113 22.5320001,3.48000009 C22.5560003,3.27199906 22.5680001,3.07600102 22.5680001,2.8920001 C22.5680001,2.71599923 22.5580002,2.52600113 22.5380001,2.32200011 C22.518,2.1179991 22.4720005,1.93000098 22.4000001,1.75800012 C22.3279998,1.58599927 22.2260008,1.44200071 22.0940001,1.32600013 C21.9619995,1.20999955 21.7800013,1.15200013 21.5480002,1.15200013 C21.323999,1.15200013 21.1440008,1.20999955 21.0080002,1.32600013 C20.8719995,1.44200071 20.7660005,1.58599927 20.6900002,1.75800012 C20.6139998,1.93000098 20.5640003,2.1179991 20.5400002,2.32200011 C20.5160001,2.52600113 20.5040002,2.71999919 20.5040002,2.9040001 Z M19.6040002,2.9280001 C19.6040002,2.59999847 19.6359999,2.29000157 19.7000002,1.99800012 C19.7640005,1.70599866 19.8719994,1.44800125 20.0240002,1.22400013 C20.1760009,0.999999016 20.3759989,0.822000799 20.6240002,0.690000142 C20.8720014,0.557999484 21.1799983,0.492000145 21.5480002,0.492000145 C21.924002,0.492000145 22.2339989,0.555999504 22.4780001,0.684000142 C22.7220014,0.812000779 22.9179994,0.983999057 23.0660001,1.20000013 C23.2140009,1.41600121 23.3179998,1.66999866 23.3780001,1.96200012 C23.4380004,2.25400157 23.4680001,2.56399847 23.4680001,2.8920001 C23.4680001,3.20400166 23.4340005,3.50599863 23.3660001,3.79800009 C23.2979998,4.09000154 23.1860009,4.34599898 23.0300001,4.56600008 C22.8739993,4.78600117 22.6760013,4.96399939 22.4360001,5.10000007 C22.1959989,5.23600074 21.9000019,5.30400006 21.5480002,5.30400006 C21.1879984,5.30400006 20.8840014,5.24200068 20.6360002,5.11800007 C20.3879989,4.99399945 20.1880009,4.82400115 20.0360002,4.60800007 C19.8839994,4.391999 19.7740005,4.14000152 19.7060002,3.85200009 C19.6379998,3.56399865 19.6040002,3.25600174 19.6040002,2.9280001 Z M26.4320001,6.74400004 C26.4320001,6.92000092 26.442,7.10999901 26.4620001,7.31400003 C26.4820002,7.51800105 26.5279997,7.70599916 26.6000001,7.87800002 C26.6720004,8.05000088 26.7739994,8.19399943 26.9060001,8.31000001 C27.0380007,8.42600059 27.2159989,8.48400001 27.4400001,8.48400001 C27.6720012,8.48400001 27.8559994,8.42800057 27.992,8.31600001 C28.1280007,8.20399945 28.2339997,8.06200088 28.31,7.89000002 C28.3860004,7.71799916 28.4359999,7.52800107 28.46,7.32000003 C28.4840002,7.11199899 28.496,6.91600096 28.496,6.73200004 C28.496,6.55599916 28.4860001,6.36600106 28.466,6.16200005 C28.4459999,5.95799903 28.4000004,5.77000092 28.328,5.59800006 C28.2559997,5.4259992 28.1540007,5.28200064 28.022,5.16600007 C27.8899994,5.04999949 27.7080012,4.99200007 27.4760001,4.99200007 C27.2519989,4.99200007 27.0720007,5.04999949 26.9360001,5.16600007 C26.7999994,5.28200064 26.6940004,5.4259992 26.6180001,5.59800006 C26.5419997,5.77000092 26.4920002,5.95799903 26.4680001,6.16200005 C26.4439999,6.36600106 26.4320001,6.55999912 26.4320001,6.74400004 Z M25.5320001,6.76800004 C25.5320001,6.4399984 25.5639998,6.13000151 25.6280001,5.83800005 C25.6920004,5.5459986 25.7999993,5.28800118 25.9520001,5.06400007 C26.1040008,4.83999895 26.3039988,4.66200073 26.5520001,4.53000008 C26.8000013,4.39799942 27.1079982,4.33200008 27.4760001,4.33200008 C27.8520019,4.33200008 28.1619988,4.39599944 28.406,4.52400008 C28.6500013,4.65200071 28.8459993,4.82399899 28.994,5.04000007 C29.1420008,5.25600114 29.2459997,5.5099986 29.306,5.80200005 C29.3660003,6.09400151 29.396,6.4039984 29.396,6.73200004 C29.396,7.04400159 29.3620004,7.34599857 29.294,7.63800002 C29.2259997,7.93000148 29.1140008,8.18599891 28.958,8.40600001 C28.8019992,8.62600111 28.6040012,8.80199934 28.364,8.934 C28.1239988,9.06600066 27.8280018,9.132 27.4760001,9.132 C27.1159983,9.132 26.8120013,9.07000062 26.5640001,8.946 C26.3159988,8.82199938 26.1160008,8.65400107 25.9640001,8.44200001 C25.8119993,8.22999895 25.7020004,7.98000146 25.6340001,7.69200002 C25.5659997,7.40399859 25.5320001,7.09600167 25.5320001,6.76800004 Z M27.2120001,0.336000148 L28.232,0.336000148 L21.7880001,9.252 L20.7560002,9.252 L27.2120001,0.336000148 Z" id="100%" fill="#000000"></path>
                        </g>
                        <g id="Time" transform="translate(160.000000, 0.000000)" fill="#000000">
                            <path d="M4.77199993,12.8231173 L3.75199994,12.8231173 L3.75199994,6.72711744 L1.54399998,6.72711744 L1.54399998,5.91111746 C1.83200142,5.91111746 2.11199861,5.88911768 2.38399997,5.84511746 C2.65600132,5.80111724 2.90199886,5.71911806 3.12199996,5.59911746 C3.34200105,5.47911686 3.52799919,5.31511851 3.67999995,5.10711747 C3.8320007,4.89911643 3.93599966,4.63511908 3.99199994,4.31511748 L4.77199993,4.31511748 L4.77199993,12.8231173 Z M7.91314278,8.63511741 C7.91314278,8.955119 7.92314268,9.31311542 7.94314278,9.70911739 C7.96314288,10.1051194 8.02714224,10.4771156 8.13514278,10.8251174 C8.24314331,11.1731191 8.41714157,11.4671162 8.65714277,11.7071174 C8.89714396,11.9471186 9.2331406,12.0671174 9.66514275,12.0671174 C10.0971449,12.0671174 10.4331415,11.9471186 10.6731427,11.7071174 C10.9131439,11.4671162 11.0871422,11.1731191 11.1951427,10.8251174 C11.3031433,10.4771156 11.3671426,10.1051194 11.3871427,9.70911739 C11.4071428,9.31311542 11.4171427,8.955119 11.4171427,8.63511741 C11.4171427,8.42711637 11.4151427,8.19711868 11.4111427,7.94511742 C11.4071427,7.69311617 11.3871429,7.44111869 11.3511427,7.18911743 C11.3151425,6.93711618 11.2631431,6.69111864 11.1951427,6.45111745 C11.1271424,6.21111625 11.0271434,6.00111835 10.8951427,5.82111746 C10.7631421,5.64111656 10.5971437,5.49511802 10.3971427,5.38311746 C10.1971417,5.27111691 9.95314418,5.21511747 9.66514275,5.21511747 C9.37714131,5.21511747 9.13314376,5.27111691 8.93314276,5.38311746 C8.73314177,5.49511802 8.56714343,5.64111656 8.43514277,5.82111746 C8.30314211,6.00111835 8.20314311,6.21111625 8.13514278,6.45111745 C8.06714244,6.69111864 8.01514296,6.93711618 7.97914278,7.18911743 C7.9431426,7.44111869 7.9231428,7.69311617 7.91914278,7.94511742 C7.91514276,8.19711868 7.91314278,8.42711637 7.91314278,8.63511741 Z M6.8331428,8.64711741 C6.8331428,8.33511585 6.84114272,8.0111191 6.8571428,7.67511743 C6.87314288,7.33911575 6.91314248,7.01111904 6.97714279,6.69111744 C7.04114311,6.37111585 7.13314219,6.06711889 7.25314279,5.77911746 C7.37314339,5.49111602 7.53714175,5.23911855 7.74514278,5.02311747 C7.95314382,4.80711639 8.21514119,4.63511812 8.53114277,4.50711748 C8.84714434,4.37911684 9.22514056,4.31511748 9.66514275,4.31511748 C10.1051449,4.31511748 10.4831412,4.37911684 10.7991427,4.50711748 C11.1151443,4.63511812 11.3771417,4.80711639 11.5851427,5.02311747 C11.7931438,5.23911855 11.9571421,5.49111602 12.0771427,5.77911746 C12.1971433,6.06711889 12.2891424,6.37111585 12.3531427,6.69111744 C12.417143,7.01111904 12.4571426,7.33911575 12.4731427,7.67511743 C12.4891428,8.0111191 12.4971427,8.33511585 12.4971427,8.64711741 C12.4971427,8.95911896 12.4891428,9.28311572 12.4731427,9.61911739 C12.4571426,9.95511907 12.417143,10.2831158 12.3531427,10.6031174 C12.2891424,10.923119 12.1971433,11.2251159 12.0771427,11.5091174 C11.9571421,11.7931188 11.7931438,12.0431163 11.5851427,12.2591173 C11.3771417,12.4751184 11.1171443,12.6451167 10.8051427,12.7691173 C10.4931412,12.893118 10.113145,12.9551173 9.66514275,12.9551173 C9.22514056,12.9551173 8.84714434,12.893118 8.53114277,12.7691173 C8.21514119,12.6451167 7.95314382,12.4751184 7.74514278,12.2591173 C7.53714175,12.0431163 7.37314339,11.7931188 7.25314279,11.5091174 C7.13314219,11.2251159 7.04114311,10.923119 6.97714279,10.6031174 C6.91314248,10.2831158 6.87314288,9.95511907 6.8571428,9.61911739 C6.84114272,9.28311572 6.8331428,8.95911896 6.8331428,8.64711741 Z" id="10"></path>
                            <path d="M20.084,8.63511741 C20.084,8.955119 20.0939999,9.31311542 20.114,9.70911739 C20.1340001,10.1051194 20.1979994,10.4771156 20.306,10.8251174 C20.4140005,11.1731191 20.5879988,11.4671162 20.828,11.7071174 C21.0680012,11.9471186 21.4039978,12.0671174 21.8359999,12.0671174 C22.2680021,12.0671174 22.6039987,11.9471186 22.8439999,11.7071174 C23.0840011,11.4671162 23.2579994,11.1731191 23.3659999,10.8251174 C23.4740005,10.4771156 23.5379998,10.1051194 23.5579999,9.70911739 C23.578,9.31311542 23.5879999,8.955119 23.5879999,8.63511741 C23.5879999,8.42711637 23.5859999,8.19711868 23.5819999,7.94511742 C23.5779999,7.69311617 23.5580001,7.44111869 23.5219999,7.18911743 C23.4859997,6.93711618 23.4340003,6.69111864 23.3659999,6.45111745 C23.2979996,6.21111625 23.1980006,6.00111835 23.0659999,5.82111746 C22.9339993,5.64111656 22.7680009,5.49511802 22.5679999,5.38311746 C22.3679989,5.27111691 22.1240014,5.21511747 21.8359999,5.21511747 C21.5479985,5.21511747 21.304001,5.27111691 21.104,5.38311746 C20.903999,5.49511802 20.7380006,5.64111656 20.606,5.82111746 C20.4739993,6.00111835 20.3740003,6.21111625 20.306,6.45111745 C20.2379996,6.69111864 20.1860002,6.93711618 20.15,7.18911743 C20.1139998,7.44111869 20.094,7.69311617 20.09,7.94511742 C20.086,8.19711868 20.084,8.42711637 20.084,8.63511741 Z M19.004,8.64711741 C19.004,8.33511585 19.0119999,8.0111191 19.028,7.67511743 C19.0440001,7.33911575 19.0839997,7.01111904 19.148,6.69111744 C19.2120003,6.37111585 19.3039994,6.06711889 19.424,5.77911746 C19.5440006,5.49111602 19.7079989,5.23911855 19.916,5.02311747 C20.124001,4.80711639 20.3859984,4.63511812 20.702,4.50711748 C21.0180015,4.37911684 21.3959978,4.31511748 21.8359999,4.31511748 C22.2760021,4.31511748 22.6539983,4.37911684 22.9699999,4.50711748 C23.2860015,4.63511812 23.5479989,4.80711639 23.7559999,5.02311747 C23.9640009,5.23911855 24.1279993,5.49111602 24.2479999,5.77911746 C24.3680005,6.06711889 24.4599996,6.37111585 24.5239999,6.69111744 C24.5880002,7.01111904 24.6279998,7.33911575 24.6439999,7.67511743 C24.66,8.0111191 24.6679999,8.33511585 24.6679999,8.64711741 C24.6679999,8.95911896 24.66,9.28311572 24.6439999,9.61911739 C24.6279998,9.95511907 24.5880002,10.2831158 24.5239999,10.6031174 C24.4599996,10.923119 24.3680005,11.2251159 24.2479999,11.5091174 C24.1279993,11.7931188 23.9640009,12.0431163 23.7559999,12.2591173 C23.5479989,12.4751184 23.2880015,12.6451167 22.9759999,12.7691173 C22.6639984,12.893118 22.2840022,12.9551173 21.8359999,12.9551173 C21.3959978,12.9551173 21.0180015,12.893118 20.702,12.7691173 C20.3859984,12.6451167 20.124001,12.4751184 19.916,12.2591173 C19.7079989,12.0431163 19.5440006,11.7931188 19.424,11.5091174 C19.3039994,11.2251159 19.2120003,10.923119 19.148,10.6031174 C19.0839997,10.2831158 19.0440001,9.95511907 19.028,9.61911739 C19.0119999,9.28311572 19.004,8.95911896 19.004,8.64711741 Z M26.9131427,8.63511741 C26.9131427,8.955119 26.9231426,9.31311542 26.9431427,9.70911739 C26.9631428,10.1051194 27.0271422,10.4771156 27.1351427,10.8251174 C27.2431433,11.1731191 27.4171415,11.4671162 27.6571427,11.7071174 C27.8971439,11.9471186 28.2331405,12.0671174 28.6651427,12.0671174 C29.0971448,12.0671174 29.4331415,11.9471186 29.6731427,11.7071174 C29.9131439,11.4671162 30.0871421,11.1731191 30.1951427,10.8251174 C30.3031432,10.4771156 30.3671426,10.1051194 30.3871427,9.70911739 C30.4071428,9.31311542 30.4171427,8.955119 30.4171427,8.63511741 C30.4171427,8.42711637 30.4151427,8.19711868 30.4111427,7.94511742 C30.4071426,7.69311617 30.3871428,7.44111869 30.3511427,7.18911743 C30.3151425,6.93711618 30.263143,6.69111864 30.1951427,6.45111745 C30.1271423,6.21111625 30.0271433,6.00111835 29.8951427,5.82111746 C29.763142,5.64111656 29.5971437,5.49511802 29.3971427,5.38311746 C29.1971417,5.27111691 28.9531441,5.21511747 28.6651427,5.21511747 C28.3771413,5.21511747 28.1331437,5.27111691 27.9331427,5.38311746 C27.7331417,5.49511802 27.5671434,5.64111656 27.4351427,5.82111746 C27.3031421,6.00111835 27.2031431,6.21111625 27.1351427,6.45111745 C27.0671424,6.69111864 27.0151429,6.93711618 26.9791427,7.18911743 C26.9431425,7.44111869 26.9231427,7.69311617 26.9191427,7.94511742 C26.9151427,8.19711868 26.9131427,8.42711637 26.9131427,8.63511741 Z M25.8331427,8.64711741 C25.8331427,8.33511585 25.8411427,8.0111191 25.8571427,7.67511743 C25.8731428,7.33911575 25.9131424,7.01111904 25.9771427,6.69111744 C26.0411431,6.37111585 26.1331421,6.06711889 26.2531427,5.77911746 C26.3731433,5.49111602 26.5371417,5.23911855 26.7451427,5.02311747 C26.9531438,4.80711639 27.2151411,4.63511812 27.5311427,4.50711748 C27.8471443,4.37911684 28.2251405,4.31511748 28.6651427,4.31511748 C29.1051449,4.31511748 29.4831411,4.37911684 29.7991427,4.50711748 C30.1151442,4.63511812 30.3771416,4.80711639 30.5851427,5.02311747 C30.7931437,5.23911855 30.9571421,5.49111602 31.0771426,5.77911746 C31.1971432,6.06711889 31.2891423,6.37111585 31.3531426,6.69111744 C31.417143,7.01111904 31.4571426,7.33911575 31.4731426,7.67511743 C31.4891427,8.0111191 31.4971426,8.33511585 31.4971426,8.64711741 C31.4971426,8.95911896 31.4891427,9.28311572 31.4731426,9.61911739 C31.4571426,9.95511907 31.417143,10.2831158 31.3531426,10.6031174 C31.2891423,10.923119 31.1971432,11.2251159 31.0771426,11.5091174 C30.9571421,11.7931188 30.7931437,12.0431163 30.5851427,12.2591173 C30.3771416,12.4751184 30.1171442,12.6451167 29.8051427,12.7691173 C29.4931411,12.893118 29.1131449,12.9551173 28.6651427,12.9551173 C28.2251405,12.9551173 27.8471443,12.893118 27.5311427,12.7691173 C27.2151411,12.6451167 26.9531438,12.4751184 26.7451427,12.2591173 C26.5371417,12.0431163 26.3731433,11.7931188 26.2531427,11.5091174 C26.1331421,11.2251159 26.0411431,10.923119 25.9771427,10.6031174 C25.9131424,10.2831158 25.8731428,9.95511907 25.8571427,9.61911739 C25.8411427,9.28311572 25.8331427,8.95911896 25.8331427,8.64711741 Z" id="00"></path>
                            <path d="M16.3074423,7.15705135 L15.015806,7.15705135 L15.015806,5.86541501 L16.3074423,5.86541501 L16.3074423,7.15705135 Z M15.015806,10.5897786 L16.3074423,10.5897786 L16.3074423,11.8814149 L15.015806,11.8814149 L15.015806,10.5897786 Z" id=":"></path>
                        </g>
                        <g id="Carrier" transform="translate(0.000000, 3.463543)">
                            <path d="M42.6394285,6.10800005 L42.6394285,1.94400012 L42.6154285,1.94400012 L39.7834286,6.10800005 L42.6394285,6.10800005 Z M43.5994285,6.10800005 L44.7514285,6.10800005 L44.7514285,7.00800003 L43.5994285,7.00800003 L43.5994285,9 L42.6394285,9 L42.6394285,7.00800003 L38.9074286,7.00800003 L38.9074286,6.02400005 L42.7834285,0.492000145 L43.5994285,0.492000145 L43.5994285,6.10800005 Z M53.0731426,7.93200002 C52.7371409,8.38000225 52.3211451,8.70199903 51.8251426,8.898 C51.3291402,9.09400098 50.8291452,9.192 50.3251427,9.192 C49.6851395,9.192 49.1131452,9.07400118 48.6091427,8.838 C48.1051402,8.60199883 47.6771445,8.28400201 47.3251427,7.88400002 C46.973141,7.48399803 46.7051436,7.02400263 46.5211427,6.50400004 C46.3371418,5.98399745 46.2451427,5.44400286 46.2451427,4.88400007 C46.2451427,4.25999696 46.3311419,3.66600291 46.5031427,3.1020001 C46.6751436,2.53799729 46.931141,2.04400224 47.2711427,1.62000013 C47.6111444,1.19599801 48.0351402,0.858001399 48.5431427,0.606000143 C49.0511452,0.353998887 49.6451393,0.228000149 50.3251427,0.228000149 C50.789145,0.228000149 51.2271406,0.281999608 51.6391426,0.390000147 C52.0511447,0.498000685 52.419141,0.667998982 52.7431426,0.900000138 C53.0671442,1.13200129 53.3391415,1.42599835 53.5591426,1.78200012 C53.7791437,2.1380019 53.9291422,2.56799759 54.0091426,3.0720001 L52.8691426,3.0720001 C52.8131423,2.74399847 52.7091434,2.46200129 52.5571426,2.22600012 C52.4051419,1.98999894 52.2171438,1.79600088 51.9931426,1.64400013 C51.7691415,1.49199937 51.5151441,1.37800051 51.2311427,1.30200013 C50.9471412,1.22599975 50.6451443,1.18800013 50.3251427,1.18800013 C49.8051401,1.18800013 49.3591445,1.29199909 48.9871427,1.50000013 C48.6151408,1.70800116 48.3111439,1.98199842 48.0751427,2.32200011 C47.8391415,2.66200181 47.6651433,3.04999792 47.5531427,3.48600009 C47.4411422,3.92200227 47.3851427,4.3679978 47.3851427,4.82400007 C47.3851427,5.2720023 47.4491421,5.701998 47.5771427,6.11400005 C47.7051434,6.5260021 47.8931415,6.88999846 48.1411427,7.20600003 C48.3891439,7.52200161 48.6951409,7.77399908 49.0591427,7.96200002 C49.4231445,8.15000095 49.8451403,8.24400001 50.3251427,8.24400001 C50.7731449,8.24400001 51.1691409,8.17200073 51.5131426,8.02800002 C51.8571444,7.8839993 52.1471415,7.68600128 52.3831426,7.43400003 C52.6191438,7.18199877 52.797142,6.88600174 52.9171426,6.54600004 C53.0371432,6.20599835 53.0891427,5.84000201 53.0731426,5.44800006 L50.3371427,5.44800006 L50.3371427,4.48800008 L54.0931426,4.48800008 L54.0931426,9 L53.3731426,9 L53.0731426,7.93200002 Z" id="4G" fill="#000000"></path>
                            <g id="Signal" transform="translate(0.000000, 3.359574)">
                                <path d="M2.77439024,0 C4.30664634,0 5.54917683,1.23121429 5.54917683,2.75 C5.54917683,4.26878571 4.30704268,5.5 2.77439024,5.5 C1.24213415,5.5 0,4.26917857 0,2.75 C0,1.23121429 1.24253049,0 2.77439024,0 L2.77439024,0 Z" id="Shape" fill="#000000"></path>
                                <path d="M9.77439024,0 C11.3066463,0 12.5487805,1.23121429 12.5487805,2.75 C12.5487805,4.26878571 11.3066463,5.5 9.77439024,5.5 C8.24213415,5.5 7,4.26917857 7,2.75 C7,1.23121429 8.24213415,0 9.77439024,0 L9.77439024,0 Z" id="Shape" fill="#000000"></path>
                                <path d="M16.7496028,0 C18.2818589,0 19.5239931,1.23121429 19.5239931,2.75 C19.5239931,4.26878571 18.2818589,5.5 16.7496028,5.5 C15.2177431,5.5 13.9756089,4.26917857 13.9756089,2.75 C13.9752126,1.23121429 15.2173467,0 16.7496028,0 L16.7496028,0 Z" id="Shape" fill="#000000"></path>
                                <path d="M23.7743902,0 C25.3066463,0 26.5487805,1.23121429 26.5487805,2.75 C26.5487805,4.26878571 25.3070427,5.5 23.7743902,5.5 C22.2421341,5.5 21,4.26917857 21,2.75 C21,1.23121429 22.2421341,0 23.7743902,0 L23.7743902,0 Z" id="Shape" fill="#000000"></path>
                                <path d="M33.0483842,2.75 C33.0483842,1.50834979 32.0310912,0.499999991 30.773994,0.499999991 C29.5168684,0.499999991 28.4996761,1.50834943 28.5000001,2.75 C28.5000001,3.99199348 29.5168464,5.00000001 30.773994,5.00000001 C32.0310912,5.00000001 33.0483842,3.99165021 33.0483842,2.75 Z" id="Shape" stroke="#000000" stroke-width="0.999999983"></path>
                            </g>
                        </g>
                    </g>
                </g>
            </g>
        </g>
    </g>
</svg>