<?xml version="1.0" encoding="UTF-8"?>
<svg width="344px" height="408px" viewBox="0 0 344 408" version="1.1" xmlns="http://www.w3.org/2000/svg" xmlns:xlink="http://www.w3.org/1999/xlink">
    <!-- Generator: Sketch 49.3 (51167) - http://www.bohemiancoding.com/sketch -->
    <title>AM/assets/iphone_video_1024</title>
    <desc>Created with Sketch.</desc>
    <defs>
        <path d="M0,56.0997254 C0,25.1167026 25.1218105,0 56.0964429,0 L283.903557,0 C314.884767,0 340,25.1099189 340,56.0997254 L340,571 L0,571 L0,56.0997254 Z" id="path-1"></path>
        <linearGradient x1="50%" y1="0%" x2="50%" y2="52.241087%" id="linearGradient-3">
            <stop stop-color="#FFFFFF" stop-opacity="0.14489923" offset="0%"></stop>
            <stop stop-color="#FFFFFF" stop-opacity="0.478232563" offset="46.9367825%"></stop>
            <stop stop-color="#FFFFFF" stop-opacity="0.659391984" offset="72.4469866%"></stop>
            <stop stop-color="#FFFFFF" offset="100%"></stop>
        </linearGradient>
    </defs>
    <g id="AM/assets/iphone_video_1024" stroke="none" stroke-width="1" fill="none" fill-rule="evenodd">
        <g id="AM/assets/iphone_1024">
            <rect id="Rectangle" fill-opacity="0" fill="#FFFFFF" x="0" y="0" width="344" height="573"></rect>
            <g id="Group-42" transform="translate(2.000000, 2.000000)">
                <g id="Group-28">
                    <mask id="mask-2" fill="white">
                        <use xlink:href="#path-1"></use>
                    </mask>
                    <g id="Rectangle-24">
                        <use fill="#FFFFFF" fill-rule="evenodd" xlink:href="#path-1"></use>
                        <path stroke="#CBCBCB" stroke-width="0.849999986" d="M0.424999993,570.575 L339.575,570.575 L339.575,56.0997254 C339.575,25.3469852 314.652391,0.424999993 283.903557,0.424999993 L56.0964429,0.424999993 C25.3542577,0.424999993 0.424999993,25.3536974 0.424999993,56.0997254 L0.424999993,570.575 Z M339.575,570.575 L340,570.575 L339.575,571 L339.575,570.575 Z"></path>
                    </g>
                    <rect id="Rectangle-25" fill="url(#linearGradient-3)" mask="url(#mask-2)" x="-21.25" y="323" width="424.15" height="150.397321"></rect>
                </g>
                <g id="AM/assets/iphone_status_bar_1024" transform="translate(21.000000, 48.000000)" opacity="0.78979846">
                    <g id="Group-2" transform="translate(0.857143, 0.380851)">
                        <g id="Battery" transform="translate(247.185714, 2.549107)">
                            <g id="Icon" transform="translate(29.914286, 0.699405)">
                                <path d="M20.1678693,5.52306548 C20.6370693,5.52306548 21.0174443,5.07895437 21.0174443,4.53174603 L21.0174443,3.54042659 C21.0174443,2.99321825 20.6370693,2.54910714 20.1678693,2.54910714 L19.7428693,2.54910714 L19.7428693,5.52306548 L20.1678693,5.52306548 Z" id="Shape" fill="#000000"></path>
                                <path d="M1.0984127,0.870637031 C0.795432588,0.870637031 0.542857143,1.13172018 0.542857143,1.46149654 L0.542857143,7.27941391 C0.542857143,7.60952245 0.795404863,7.87063703 1.0984127,7.87063703 L17.9873016,7.87063703 C18.2901058,7.87063703 18.5428571,7.60937204 18.5428571,7.27941391 L18.5428571,1.46149654 C18.5428571,1.13172018 18.2902817,0.870637031 17.9873016,0.870637031 L1.0984127,0.870637031 Z" id="Shape" stroke="#000000"></path>
                                <rect id="Rectangle-15" fill="#000000" x="2.04285714" y="2.37063703" width="15" height="4" rx="0.424999993"></rect>
                            </g>
                            <path d="M3.02955691,9 L2.16255693,9 L2.16255693,3.81840009 L0.285756961,3.81840009 L0.285756961,3.1248001 C0.530558181,3.1248001 0.768555797,3.10610029 0.999756949,3.0687001 C1.2309581,3.03129991 1.44005601,2.96160061 1.62705694,2.8596001 C1.81405787,2.7575996 1.97215629,2.61820099 2.10135693,2.44140011 C2.23055757,2.26459923 2.31895669,2.04020148 2.36655693,1.76820012 L3.02955691,1.76820012 L3.02955691,9 Z M5.52900034,5.44020006 C5.52900034,5.71220142 5.53750026,6.01649837 5.55450034,6.35310005 C5.57150043,6.68970172 5.62589988,7.00589855 5.71770034,7.30170003 C5.8095008,7.5975015 5.95739932,7.847399 6.16140033,8.05140002 C6.36540135,8.25540103 6.65099849,8.35740001 7.01820032,8.35740001 C7.38540215,8.35740001 7.67099929,8.25540103 7.8750003,8.05140002 C8.07900132,7.847399 8.22689984,7.5975015 8.3187003,7.30170003 C8.41050075,7.00589855 8.46490021,6.68970172 8.48190029,6.35310005 C8.49890038,6.01649837 8.50740029,5.71220142 8.50740029,5.44020006 C8.50740029,5.26339918 8.50570031,5.06790114 8.50230029,4.85370007 C8.49890028,4.639499 8.48190045,4.42530115 8.45130029,4.21110008 C8.42070014,3.99689901 8.37650058,3.78780111 8.3187003,3.58380009 C8.26090001,3.37979908 8.17590086,3.20130086 8.0637003,3.0483001 C7.95149974,2.89529934 7.81040116,2.77120058 7.64040031,2.67600011 C7.47039946,2.58079963 7.26300154,2.53320011 7.01820032,2.53320011 C6.7733991,2.53320011 6.56600118,2.58079963 6.39600033,2.67600011 C6.22599948,2.77120058 6.0849009,2.89529934 5.97270034,3.0483001 C5.86049978,3.20130086 5.77550063,3.37979908 5.71770034,3.58380009 C5.65990005,3.78780111 5.6157005,3.99689901 5.58510034,4.21110008 C5.55450019,4.42530115 5.53750036,4.639499 5.53410034,4.85370007 C5.53070033,5.06790114 5.52900034,5.26339918 5.52900034,5.44020006 Z M4.61100036,5.45040006 C4.61100036,5.18519874 4.61780029,4.9098015 4.63140036,4.62420007 C4.64500043,4.33859865 4.67900009,4.05980144 4.73340036,3.78780009 C4.78780063,3.51579873 4.86599985,3.25740132 4.96800035,3.0126001 C5.07000086,2.76779888 5.20939947,2.55360103 5.38620035,2.37000011 C5.56300123,2.1863992 5.785699,2.04020066 6.05430033,1.93140012 C6.32290167,1.82259958 6.64419845,1.76820012 7.01820032,1.76820012 C7.39220218,1.76820012 7.71349896,1.82259958 7.9821003,1.93140012 C8.25070164,2.04020066 8.47339941,2.1863992 8.65020029,2.37000011 C8.82700117,2.55360103 8.96639978,2.76779888 9.06840028,3.0126001 C9.17040079,3.25740132 9.24860001,3.51579873 9.30300028,3.78780009 C9.35740055,4.05980144 9.39140021,4.33859865 9.40500028,4.62420007 C9.41860035,4.9098015 9.42540028,5.18519874 9.42540028,5.45040006 C9.42540028,5.71560138 9.41860035,5.99099862 9.40500028,6.27660005 C9.39140021,6.56220147 9.35740055,6.84099868 9.30300028,7.11300003 C9.24860001,7.38500139 9.17040079,7.64169882 9.06840028,7.88310002 C8.96639978,8.12450122 8.82700117,8.33699909 8.65020029,8.52060001 C8.47339941,8.70420092 8.25240162,8.84869948 7.9872003,8.9541 C7.72199898,9.05950053 7.39900222,9.1122 7.01820032,9.1122 C6.64419845,9.1122 6.32290167,9.05950053 6.05430033,8.9541 C5.785699,8.84869948 5.56300123,8.70420092 5.38620035,8.52060001 C5.20939947,8.33699909 5.07000086,8.12450122 4.96800035,7.88310002 C4.86599985,7.64169882 4.78780063,7.38500139 4.73340036,7.11300003 C4.67900009,6.84099868 4.64500043,6.56220147 4.63140036,6.27660005 C4.61780029,5.99099862 4.61100036,5.71560138 4.61100036,5.45040006 Z M11.2002002,5.44020006 C11.2002002,5.71220142 11.2087002,6.01649837 11.2257002,6.35310005 C11.2427003,6.68970172 11.2970998,7.00589855 11.3889002,7.30170003 C11.4807007,7.5975015 11.6285992,7.847399 11.8326002,8.05140002 C12.0366013,8.25540103 12.3221984,8.35740001 12.6894002,8.35740001 C13.0566021,8.35740001 13.3421992,8.25540103 13.5462002,8.05140002 C13.7502012,7.847399 13.8980997,7.5975015 13.9899002,7.30170003 C14.0817007,7.00589855 14.1361001,6.68970172 14.1531002,6.35310005 C14.1701003,6.01649837 14.1786002,5.71220142 14.1786002,5.44020006 C14.1786002,5.26339918 14.1769002,5.06790114 14.1735002,4.85370007 C14.1701002,4.639499 14.1531004,4.42530115 14.1225002,4.21110008 C14.0919,3.99689901 14.0477005,3.78780111 13.9899002,3.58380009 C13.9320999,3.37979908 13.8471008,3.20130086 13.7349002,3.0483001 C13.6226996,2.89529934 13.4816011,2.77120058 13.3116002,2.67600011 C13.1415994,2.58079963 12.9342014,2.53320011 12.6894002,2.53320011 C12.444599,2.53320011 12.2372011,2.58079963 12.0672002,2.67600011 C11.8971994,2.77120058 11.7561008,2.89529934 11.6439002,3.0483001 C11.5316997,3.20130086 11.4467005,3.37979908 11.3889002,3.58380009 C11.3311,3.78780111 11.2869004,3.99689901 11.2563002,4.21110008 C11.2257001,4.42530115 11.2087003,4.639499 11.2053002,4.85370007 C11.2019002,5.06790114 11.2002002,5.26339918 11.2002002,5.44020006 Z M10.2822003,5.45040006 C10.2822003,5.18519874 10.2890002,4.9098015 10.3026003,4.62420007 C10.3162003,4.33859865 10.3502,4.05980144 10.4046003,3.78780009 C10.4590005,3.51579873 10.5371997,3.25740132 10.6392003,3.0126001 C10.7412008,2.76779888 10.8805994,2.55360103 11.0574002,2.37000011 C11.2342011,2.1863992 11.4568989,2.04020066 11.7255002,1.93140012 C11.9941016,1.82259958 12.3153984,1.76820012 12.6894002,1.76820012 C13.0634021,1.76820012 13.3846989,1.82259958 13.6533002,1.93140012 C13.9219015,2.04020066 14.1445993,2.1863992 14.3214002,2.37000011 C14.4982011,2.55360103 14.6375997,2.76779888 14.7396002,3.0126001 C14.8416007,3.25740132 14.9197999,3.51579873 14.9742002,3.78780009 C15.0286005,4.05980144 15.0626001,4.33859865 15.0762002,4.62420007 C15.0898002,4.9098015 15.0966002,5.18519874 15.0966002,5.45040006 C15.0966002,5.71560138 15.0898002,5.99099862 15.0762002,6.27660005 C15.0626001,6.56220147 15.0286005,6.84099868 14.9742002,7.11300003 C14.9197999,7.38500139 14.8416007,7.64169882 14.7396002,7.88310002 C14.6375997,8.12450122 14.4982011,8.33699909 14.3214002,8.52060001 C14.1445993,8.70420092 13.9236015,8.84869948 13.6584002,8.9541 C13.3931989,9.05950053 13.0702021,9.1122 12.6894002,9.1122 C12.3153984,9.1122 11.9941016,9.05950053 11.7255002,8.9541 C11.4568989,8.84869948 11.2342011,8.70420092 11.0574002,8.52060001 C10.8805994,8.33699909 10.7412008,8.12450122 10.6392003,7.88310002 C10.5371997,7.64169882 10.4590005,7.38500139 10.4046003,7.11300003 C10.3502,6.84099868 10.3162003,6.56220147 10.3026003,6.27660005 C10.2890002,5.99099862 10.2822003,5.71560138 10.2822003,5.45040006 Z M17.2284001,3.81840009 C17.2284001,3.96800083 17.2369001,4.12949922 17.2539001,4.30290008 C17.2709002,4.47630094 17.3099998,4.63609934 17.3712001,4.78230007 C17.4324004,4.9285008 17.5190996,5.05089957 17.6313001,5.14950007 C17.7435007,5.24810056 17.8947992,5.29740006 18.0852001,5.29740006 C18.2824011,5.29740006 18.4387995,5.24980054 18.5544001,5.15460007 C18.6700007,5.05939959 18.7600998,4.9387008 18.8247001,4.79250007 C18.8893004,4.64629934 18.9318,4.48480096 18.9522001,4.30800008 C18.9726002,4.1311992 18.9828001,3.96460087 18.9828001,3.80820009 C18.9828001,3.65859934 18.9743002,3.49710096 18.9573001,3.3237001 C18.9403,3.15029923 18.9012004,2.99050083 18.8400001,2.8443001 C18.7787998,2.69809938 18.6921007,2.5757006 18.5799001,2.47710011 C18.4676996,2.37849962 18.3130011,2.32920011 18.1158001,2.32920011 C17.9253992,2.32920011 17.7724007,2.37849962 17.6568001,2.47710011 C17.5411996,2.5757006 17.4511005,2.69809938 17.3865001,2.8443001 C17.3218998,2.99050083 17.2794002,3.15029923 17.2590001,3.3237001 C17.2386,3.49710096 17.2284001,3.66199931 17.2284001,3.81840009 Z M16.4634002,3.83880009 C16.4634002,3.5599987 16.4905999,3.29650134 16.5450002,3.0483001 C16.5994004,2.80009886 16.6911995,2.58080106 16.8204002,2.39040011 C16.9496008,2.19999916 17.1195991,2.04870068 17.3304001,1.93650012 C17.5412012,1.82429956 17.8029986,1.76820012 18.1158001,1.76820012 C18.4354017,1.76820012 18.6988991,1.82259958 18.9063001,1.93140012 C19.1137011,2.04020066 19.2802995,2.1863992 19.4061001,2.37000011 C19.5319007,2.55360103 19.6202998,2.76949887 19.6713001,3.0177001 C19.7223004,3.26590134 19.7478001,3.5293987 19.7478001,3.80820009 C19.7478001,4.07340141 19.7189004,4.33009884 19.6611001,4.57830008 C19.6032998,4.82650131 19.5081008,5.04409913 19.3755001,5.23110006 C19.2428994,5.418101 19.0746011,5.56939948 18.8706001,5.68500006 C18.6665991,5.80060063 18.4150016,5.85840005 18.1158001,5.85840005 C17.8097986,5.85840005 17.5514012,5.80570058 17.3406001,5.70030006 C17.1297991,5.59489953 16.9598008,5.45040098 16.8306002,5.26680006 C16.7013995,5.08319915 16.6079004,4.86900129 16.5501002,4.62420007 C16.4922999,4.37939885 16.4634002,4.11760148 16.4634002,3.83880009 Z M22.2672001,7.08240003 C22.2672001,7.23200078 22.2757,7.39349916 22.2927001,7.56690002 C22.3097001,7.74030089 22.3487998,7.90009929 22.4100001,8.04630002 C22.4712004,8.19250074 22.5578995,8.31489952 22.6701001,8.41350001 C22.7823006,8.5121005 22.9335991,8.56140001 23.124,8.56140001 C23.321201,8.56140001 23.4775995,8.51380048 23.5932,8.41860001 C23.7088006,8.32339954 23.7988997,8.20270074 23.8635,8.05650002 C23.9281004,7.91029929 23.9705999,7.74880091 23.991,7.57200002 C24.0114001,7.39519914 24.0216,7.22860081 24.0216,7.07220003 C24.0216,6.92259929 24.0131001,6.76110091 23.9961,6.58770004 C23.9790999,6.41429918 23.9400003,6.25450078 23.8788,6.10830005 C23.8175997,5.96209932 23.7309006,5.83970055 23.6187,5.74110006 C23.5064995,5.64249956 23.351801,5.59320006 23.1546,5.59320006 C22.9641991,5.59320006 22.8112006,5.64249956 22.6956001,5.74110006 C22.5799995,5.83970055 22.4899004,5.96209932 22.4253001,6.10830005 C22.3606997,6.25450078 22.3182002,6.41429918 22.2978001,6.58770004 C22.2774,6.76110091 22.2672001,6.92599925 22.2672001,7.08240003 Z M21.5022001,7.10280003 C21.5022001,6.82399864 21.5293998,6.56050128 21.5838001,6.31230005 C21.6382003,6.06409881 21.7299994,5.84480101 21.8592001,5.65440006 C21.9884007,5.46399911 22.158399,5.31270062 22.3692001,5.20050006 C22.5800011,5.08829951 22.8417985,5.03220007 23.1546,5.03220007 C23.4742016,5.03220007 23.737699,5.08659952 23.9451,5.19540006 C24.1525011,5.30420061 24.3190994,5.45039914 24.4449,5.63400006 C24.5707006,5.81760097 24.6590998,6.03349881 24.7101,6.28170005 C24.7611003,6.52990128 24.7866,6.79339864 24.7866,7.07220003 C24.7866,7.33740135 24.7577003,7.59409878 24.6999,7.84230002 C24.6420997,8.09050126 24.5469007,8.30809908 24.4143,8.49510001 C24.2816994,8.68210094 24.113401,8.83169944 23.9094,8.9439 C23.705399,9.05610056 23.4538015,9.1122 23.1546,9.1122 C22.8485985,9.1122 22.5902011,9.05950053 22.3794001,8.9541 C22.168599,8.84869948 21.9986007,8.70590091 21.8694001,8.52570001 C21.7401994,8.34549911 21.6467004,8.13300124 21.5889001,7.88820002 C21.5310998,7.6433988 21.5022001,7.38160142 21.5022001,7.10280003 Z M22.9302,1.63560013 L23.7972,1.63560013 L18.3198001,9.2142 L17.4426001,9.2142 L22.9302,1.63560013 Z" id="100%" fill="#000000"></path>
                        </g>
                        <g id="Time" transform="translate(137.000000, 3.000000)" fill="#000000">
                            <path d="M3.05619994,7.69940476 L2.18919995,7.69940476 L2.18919995,2.51780485 L0.312399985,2.51780485 L0.312399985,1.82420486 C0.557201205,1.82420486 0.795198821,1.80550505 1.02639997,1.76810486 C1.25760112,1.73070468 1.46669903,1.66100537 1.65369996,1.55900487 C1.84070089,1.45700436 1.99879931,1.31760575 2.12799995,1.14080487 C2.2572006,0.964003993 2.34559971,0.73960624 2.39319995,0.467604885 L3.05619994,0.467604885 L3.05619994,7.69940476 Z M5.72617134,4.13960482 C5.72617134,4.41160618 5.73467126,4.71590313 5.75167134,5.05250481 C5.76867143,5.38910648 5.82307088,5.70530332 5.91487134,6.00110479 C6.0066718,6.29690626 6.15457031,6.54680376 6.35857133,6.75080478 C6.56257235,6.95480579 6.84816949,7.05680477 7.21537132,7.05680477 C7.58257315,7.05680477 7.86817028,6.95480579 8.0721713,6.75080478 C8.27617232,6.54680376 8.42407084,6.29690626 8.51587129,6.00110479 C8.60767175,5.70530332 8.66207121,5.38910648 8.67907129,5.05250481 C8.69607138,4.71590313 8.70457129,4.41160618 8.70457129,4.13960482 C8.70457129,3.96280394 8.70287131,3.7673059 8.69947129,3.55310483 C8.69607127,3.33890377 8.67907144,3.12470591 8.64847129,2.91050484 C8.61787114,2.69630378 8.57367158,2.48720587 8.51587129,2.28320485 C8.45807101,2.07920384 8.37307186,1.90070563 8.2608713,1.74770486 C8.14867074,1.5947041 8.00757215,1.47060534 7.8375713,1.37540487 C7.66757046,1.2802044 7.46017254,1.23260487 7.21537132,1.23260487 C6.9705701,1.23260487 6.76317217,1.2802044 6.59317133,1.37540487 C6.42317048,1.47060534 6.28207189,1.5947041 6.16987133,1.74770486 C6.05767077,1.90070563 5.97267163,2.07920384 5.91487134,2.28320485 C5.85707105,2.48720587 5.81287149,2.69630378 5.78227134,2.91050484 C5.75167119,3.12470591 5.73467136,3.33890377 5.73127134,3.55310483 C5.72787132,3.7673059 5.72617134,3.96280394 5.72617134,4.13960482 Z M4.80817136,4.14980482 C4.80817136,3.8846035 4.81497129,3.60920626 4.82857136,3.32360484 C4.84217142,3.03800341 4.87617108,2.75920621 4.93057135,2.48720485 C4.98497163,2.2152035 5.06317084,1.95680608 5.16517135,1.71200486 C5.26717186,1.46720364 5.40657046,1.25300579 5.58337134,1.06940487 C5.76017222,0.88580396 5.98286999,0.739605424 6.25147133,0.630804882 C6.52007267,0.52200434 6.84136945,0.467604885 7.21537132,0.467604885 C7.58937318,0.467604885 7.91066996,0.52200434 8.1792713,0.630804882 C8.44787264,0.739605424 8.67057041,0.88580396 8.84737129,1.06940487 C9.02417217,1.25300579 9.16357077,1.46720364 9.26557128,1.71200486 C9.36757179,1.95680608 9.44577101,2.2152035 9.50017128,2.48720485 C9.55457155,2.75920621 9.58857121,3.03800341 9.60217127,3.32360484 C9.61577134,3.60920626 9.62257127,3.8846035 9.62257127,4.14980482 C9.62257127,4.41500614 9.61577134,4.69040339 9.60217127,4.97600481 C9.58857121,5.26160623 9.55457155,5.54040344 9.50017128,5.81240479 C9.44577101,6.08440615 9.36757179,6.34110358 9.26557128,6.58250478 C9.16357077,6.82390598 9.02417217,7.03640386 8.84737129,7.22000477 C8.67057041,7.40360568 8.44957262,7.54810424 8.1843713,7.65350476 C7.91916998,7.75890529 7.59617321,7.81160476 7.21537132,7.81160476 C6.84136945,7.81160476 6.52007267,7.75890529 6.25147133,7.65350476 C5.98286999,7.54810424 5.76017222,7.40360568 5.58337134,7.22000477 C5.40657046,7.03640386 5.26717186,6.82390598 5.16517135,6.58250478 C5.06317084,6.34110358 4.98497163,6.08440615 4.93057135,5.81240479 C4.87617108,5.54040344 4.84217142,5.26160623 4.82857136,4.97600481 C4.81497129,4.69040339 4.80817136,4.41500614 4.80817136,4.14980482 Z" id="10"></path>
                            <path d="M16.0714,4.13960482 C16.0714,4.41160618 16.0798999,4.71590313 16.0969,5.05250481 C16.1139001,5.38910648 16.1682995,5.70530332 16.2601,6.00110479 C16.3519004,6.29690626 16.4997989,6.54680376 16.7038,6.75080478 C16.907801,6.95480579 17.1933981,7.05680477 17.5606,7.05680477 C17.9278018,7.05680477 18.2133989,6.95480579 18.4173999,6.75080478 C18.621401,6.54680376 18.7692995,6.29690626 18.8610999,6.00110479 C18.9529004,5.70530332 19.0072998,5.38910648 19.0242999,5.05250481 C19.0413,4.71590313 19.0497999,4.41160618 19.0497999,4.13960482 C19.0497999,3.96280394 19.0480999,3.7673059 19.0446999,3.55310483 C19.0412999,3.33890377 19.0243001,3.12470591 18.9936999,2.91050484 C18.9630998,2.69630378 18.9189002,2.48720587 18.8610999,2.28320485 C18.8032996,2.07920384 18.7183005,1.90070563 18.6060999,1.74770486 C18.4938994,1.5947041 18.3528008,1.47060534 18.1827999,1.37540487 C18.0127991,1.2802044 17.8054012,1.23260487 17.5606,1.23260487 C17.3157987,1.23260487 17.1084008,1.2802044 16.9384,1.37540487 C16.7683991,1.47060534 16.6273005,1.5947041 16.5151,1.74770486 C16.4028994,1.90070563 16.3179003,2.07920384 16.2601,2.28320485 C16.2022997,2.48720587 16.1581001,2.69630378 16.1275,2.91050484 C16.0968998,3.12470591 16.0799,3.33890377 16.0765,3.55310483 C16.0731,3.7673059 16.0714,3.96280394 16.0714,4.13960482 Z M15.1534,4.14980482 C15.1534,3.8846035 15.1601999,3.60920626 15.1738,3.32360484 C15.1874001,3.03800341 15.2213997,2.75920621 15.2758,2.48720485 C15.3302003,2.2152035 15.4083995,1.95680608 15.5104,1.71200486 C15.6124005,1.46720364 15.7517991,1.25300579 15.9286,1.06940487 C16.1054009,0.88580396 16.3280986,0.739605424 16.5967,0.630804882 C16.8653013,0.52200434 17.1865981,0.467604885 17.5606,0.467604885 C17.9346018,0.467604885 18.2558986,0.52200434 18.5244999,0.630804882 C18.7931013,0.739605424 19.015799,0.88580396 19.1925999,1.06940487 C19.3694008,1.25300579 19.5087994,1.46720364 19.6107999,1.71200486 C19.7128004,1.95680608 19.7909996,2.2152035 19.8453999,2.48720485 C19.8998002,2.75920621 19.9337998,3.03800341 19.9473999,3.32360484 C19.961,3.60920626 19.9677999,3.8846035 19.9677999,4.14980482 C19.9677999,4.41500614 19.961,4.69040339 19.9473999,4.97600481 C19.9337998,5.26160623 19.8998002,5.54040344 19.8453999,5.81240479 C19.7909996,6.08440615 19.7128004,6.34110358 19.6107999,6.58250478 C19.5087994,6.82390598 19.3694008,7.03640386 19.1925999,7.22000477 C19.015799,7.40360568 18.7948013,7.54810424 18.5295999,7.65350476 C18.2643986,7.75890529 17.9414018,7.81160476 17.5606,7.81160476 C17.1865981,7.81160476 16.8653013,7.75890529 16.5967,7.65350476 C16.3280986,7.54810424 16.1054009,7.40360568 15.9286,7.22000477 C15.7517991,7.03640386 15.6124005,6.82390598 15.5104,6.58250478 C15.4083995,6.34110358 15.3302003,6.08440615 15.2758,5.81240479 C15.2213997,5.54040344 15.1874001,5.26160623 15.1738,4.97600481 C15.1601999,4.69040339 15.1534,4.41500614 15.1534,4.14980482 Z M21.8761713,4.13960482 C21.8761713,4.41160618 21.8846712,4.71590313 21.9016713,5.05250481 C21.9186714,5.38910648 21.9730708,5.70530332 22.0648713,6.00110479 C22.1566718,6.29690626 22.3045703,6.54680376 22.5085713,6.75080478 C22.7125723,6.95480579 22.9981695,7.05680477 23.3653713,7.05680477 C23.7325731,7.05680477 24.0181703,6.95480579 24.2221713,6.75080478 C24.4261723,6.54680376 24.5740708,6.29690626 24.6658713,6.00110479 C24.7576717,5.70530332 24.8120712,5.38910648 24.8290713,5.05250481 C24.8460713,4.71590313 24.8545713,4.41160618 24.8545713,4.13960482 C24.8545713,3.96280394 24.8528713,3.7673059 24.8494713,3.55310483 C24.8460712,3.33890377 24.8290714,3.12470591 24.7984713,2.91050484 C24.7678711,2.69630378 24.7236715,2.48720587 24.6658713,2.28320485 C24.608071,2.07920384 24.5230718,1.90070563 24.4108713,1.74770486 C24.2986707,1.5947041 24.1575721,1.47060534 23.9875713,1.37540487 C23.8175704,1.2802044 23.6101725,1.23260487 23.3653713,1.23260487 C23.1205701,1.23260487 22.9131721,1.2802044 22.7431713,1.37540487 C22.5731704,1.47060534 22.4320719,1.5947041 22.3198713,1.74770486 C22.2076707,1.90070563 22.1226716,2.07920384 22.0648713,2.28320485 C22.007071,2.48720587 21.9628715,2.69630378 21.9322713,2.91050484 C21.9016712,3.12470591 21.8846713,3.33890377 21.8812713,3.55310483 C21.8778713,3.7673059 21.8761713,3.96280394 21.8761713,4.13960482 Z M20.9581713,4.14980482 C20.9581713,3.8846035 20.9649713,3.60920626 20.9785713,3.32360484 C20.9921714,3.03800341 21.0261711,2.75920621 21.0805713,2.48720485 C21.1349716,2.2152035 21.2131708,1.95680608 21.3151713,1.71200486 C21.4171718,1.46720364 21.5565704,1.25300579 21.7333713,1.06940487 C21.9101722,0.88580396 22.13287,0.739605424 22.4014713,0.630804882 C22.6700726,0.52200434 22.9913694,0.467604885 23.3653713,0.467604885 C23.7393731,0.467604885 24.0606699,0.52200434 24.3292713,0.630804882 C24.5978726,0.739605424 24.8205704,0.88580396 24.9973713,1.06940487 C25.1741721,1.25300579 25.3135707,1.46720364 25.4155712,1.71200486 C25.5175718,1.95680608 25.595771,2.2152035 25.6501712,2.48720485 C25.7045715,2.75920621 25.7385712,3.03800341 25.7521712,3.32360484 C25.7657713,3.60920626 25.7725712,3.8846035 25.7725712,4.14980482 C25.7725712,4.41500614 25.7657713,4.69040339 25.7521712,4.97600481 C25.7385712,5.26160623 25.7045715,5.54040344 25.6501712,5.81240479 C25.595771,6.08440615 25.5175718,6.34110358 25.4155712,6.58250478 C25.3135707,6.82390598 25.1741721,7.03640386 24.9973713,7.22000477 C24.8205704,7.40360568 24.5995726,7.54810424 24.3343713,7.65350476 C24.0691699,7.75890529 23.7461732,7.81160476 23.3653713,7.81160476 C22.9913694,7.81160476 22.6700726,7.75890529 22.4014713,7.65350476 C22.13287,7.54810424 21.9101722,7.40360568 21.7333713,7.22000477 C21.5565704,7.03640386 21.4171718,6.82390598 21.3151713,6.58250478 C21.2131708,6.34110358 21.1349716,6.08440615 21.0805713,5.81240479 C21.0261711,5.54040344 20.9921714,5.26160623 20.9785713,4.97600481 C20.9649713,4.69040339 20.9581713,4.41500614 20.9581713,4.14980482 Z" id="00"></path>
                            <path d="M12.861326,3.01343976 L11.7634351,3.01343976 L11.7634351,1.91554887 L12.861326,1.91554887 L12.861326,3.01343976 Z M11.7634351,5.93125789 L12.861326,5.93125789 L12.861326,7.02914878 L11.7634351,7.02914878 L11.7634351,5.93125789 Z" id=":"></path>
                        </g>
                        <g id="Carrier" transform="translate(0.000000, 0.393873)">
                            <path d="M36.2435142,7.54180004 L36.2435142,4.0024001 L36.2231142,4.0024001 L33.8159143,7.54180004 L36.2435142,7.54180004 Z M37.0595142,7.54180004 L38.0387142,7.54180004 L38.0387142,8.30680003 L37.0595142,8.30680003 L37.0595142,10 L36.2435142,10 L36.2435142,8.30680003 L33.0713143,8.30680003 L33.0713143,7.47040004 L36.3659142,2.76820012 L37.0595142,2.76820012 L37.0595142,7.54180004 Z M45.1121712,9.09220002 C44.8265698,9.47300191 44.4729733,9.74669917 44.0513712,9.9133 C43.6297691,10.0799008 43.2047734,10.1632 42.7763713,10.1632 C42.2323686,10.1632 41.7461734,10.062901 41.3177713,9.8623 C40.8893692,9.661699 40.5255728,9.39140171 40.2263713,9.05140002 C39.9271698,8.71139832 39.6993721,8.32040224 39.5429713,7.87840004 C39.3865705,7.43639783 39.3083713,6.97740243 39.3083713,6.50140006 C39.3083713,5.97099742 39.3814706,5.46610247 39.5276713,4.98670009 C39.6738721,4.5072977 39.8914699,4.0874019 40.1804713,3.72700011 C40.4694728,3.36659831 40.8298691,3.07930119 41.2616713,2.86510012 C41.6934734,2.65089905 42.1983684,2.54380013 42.7763713,2.54380013 C43.1707732,2.54380013 43.5430695,2.58969967 43.8932713,2.68150012 C44.243473,2.77330058 44.5562699,2.91779913 44.8316712,3.11500012 C45.1070726,3.3122011 45.3382703,3.5620986 45.5252712,3.8647001 C45.7122722,4.16730161 45.8397709,4.53279795 45.9077712,4.96120009 L44.9387712,4.96120009 C44.891171,4.6823987 44.8027719,4.4427011 44.6735712,4.2421001 C44.5443706,4.0414991 44.3845722,3.87660075 44.1941712,3.74740011 C44.0037703,3.61819946 43.7878725,3.52130043 43.5464713,3.45670011 C43.3050701,3.39209979 43.0483726,3.35980011 42.7763713,3.35980011 C42.3343691,3.35980011 41.9552729,3.44819923 41.6390713,3.62500011 C41.3228697,3.80180099 41.0644723,4.03469866 40.8638713,4.3237001 C40.6632703,4.61270154 40.5153718,4.94249823 40.4201713,5.31310008 C40.3249708,5.68370193 40.2773713,6.06279813 40.2773713,6.45040006 C40.2773713,6.83120196 40.3317708,7.1966983 40.4405713,7.54690004 C40.5493719,7.89710179 40.7091703,8.20649869 40.9199713,8.47510003 C41.1307724,8.74370136 41.3908697,8.95789922 41.7002713,9.11770002 C42.0096728,9.27750081 42.3683692,9.35740001 42.7763713,9.35740001 C43.1571732,9.35740001 43.4937698,9.29620062 43.7861713,9.17380001 C44.0785727,9.0513994 44.3250702,8.88310109 44.5256712,8.66890002 C44.7262722,8.45469896 44.8775707,8.20310148 44.9795712,7.91410004 C45.0815717,7.6250986 45.1257713,7.31400171 45.1121712,6.98080005 L42.7865713,6.98080005 L42.7865713,6.16480007 L45.9791712,6.16480007 L45.9791712,10 L45.3671712,10 L45.1121712,9.09220002 Z" id="4G" fill="#000000"></path>
                            <g id="Signal" transform="translate(0.000000, 4.554043)">
                                <path d="M2.35823171,0 C3.66064939,0 4.7168003,1.04616571 4.7168003,2.33668155 C4.7168003,3.62719739 3.66098628,4.6733631 2.35823171,4.6733631 C1.05581402,4.6733631 0,3.6275312 0,2.33668155 C0,1.04616571 1.05615091,0 2.35823171,0 L2.35823171,0 Z" id="Shape" fill="#000000"></path>
                                <path d="M8.30823171,0 C9.61064939,0 10.6664634,1.04616571 10.6664634,2.33668155 C10.6664634,3.62719739 9.61064939,4.6733631 8.30823171,4.6733631 C7.00581402,4.6733631 5.95,3.6275312 5.95,2.33668155 C5.95,1.04616571 7.00581402,0 8.30823171,0 L8.30823171,0 Z" id="Shape" fill="#000000"></path>
                                <path d="M14.2371624,0 C15.5395801,0 16.5953941,1.04616571 16.5953941,2.33668155 C16.5953941,3.62719739 15.5395801,4.6733631 14.2371624,4.6733631 C12.9350816,4.6733631 11.8792676,3.6275312 11.8792676,2.33668155 C11.8789307,1.04616571 12.9347447,0 14.2371624,0 L14.2371624,0 Z" id="Shape" fill="#000000"></path>
                                <path d="M20.2082317,0 C21.5106494,0 22.5664634,1.04616571 22.5664634,2.33668155 C22.5664634,3.62719739 21.5109863,4.6733631 20.2082317,4.6733631 C18.905814,4.6733631 17.85,3.6275312 17.85,2.33668155 C17.85,1.04616571 18.905814,0 20.2082317,0 L20.2082317,0 Z" id="Shape" fill="#000000"></path>
                                <path d="M28.0911266,2.33668155 C28.0911266,1.28176454 27.2264605,0.424999993 26.1578949,0.424999993 C25.0893051,0.424999993 24.2247247,1.28176421 24.2250001,2.33668155 C24.2250001,3.39189024 25.0892865,4.2483631 26.1578949,4.2483631 C27.2264605,4.2483631 28.0911266,3.39159856 28.0911266,2.33668155 Z" id="Shape" stroke="#000000" stroke-width="0.849999986"></path>
                            </g>
                        </g>
                    </g>
                </g>
            </g>
        </g>
    </g>
</svg>