<?xml version="1.0" encoding="UTF-8"?>
<svg width="183px" height="28px" viewBox="0 0 183 28" version="1.1" xmlns="http://www.w3.org/2000/svg" xmlns:xlink="http://www.w3.org/1999/xlink">
    <!-- Generator: Sketch 49.3 (51167) - http://www.bohemiancoding.com/sketch -->
    <title>AM/assets/mps_logos</title>
    <desc>Created with Sketch.</desc>
    <defs></defs>
    <g id="AM/assets/mps_logos" stroke="none" stroke-width="1" fill="none" fill-rule="evenodd">
        <g id="Group-8" transform="translate(1.000000, 0.000000)">
            <g id="visa_master_psi-copy" transform="translate(0.000000, 3.000000)">
                <g id="Visa(1)" transform="translate(0.396445, 1.581779)" fill="#000000">
                    <polyline id="Fill-2" points="16.0366914 13.4834059 18.3364729 0.244724021 22.0145206 0.244724021 19.7131882 13.4834059 16.0366914 13.4834059"></polyline>
                    <path d="M33.0530582,0.570600049 C32.3243761,0.302291226 31.1826278,0.0147088013 29.756541,0.0147088013 C26.1224365,0.0147088013 23.5620975,1.81019695 23.5403844,4.38347637 C23.5199637,6.28573014 25.368164,7.34704623 26.7632321,7.98028548 C28.1947472,8.62899433 28.6763132,9.04286957 28.669334,9.62234562 C28.6602868,10.5096921 27.5260347,10.9151985 26.4688125,10.9151985 C24.9967145,10.9151985 24.2147836,10.7146009 23.006862,10.2203345 L22.5327922,10.0098465 L22.0165885,12.9734163 C22.8758078,13.3429115 24.4644845,13.6632084 26.1136478,13.6796924 C29.9801345,13.6796924 32.4898095,11.9047458 32.5185018,9.15673598 C32.5324602,7.65085905 31.5522679,6.50458695 29.4305857,5.55992687 C28.1448587,4.94748282 27.3574995,4.53867959 27.3657712,3.91862753 C27.3657712,3.36831549 28.0321572,2.77996344 29.4722025,2.77996344 C30.6749544,2.76170424 31.5460641,3.01885466 32.2248577,3.28716348 L32.5544318,3.43983069 L33.0530582,0.570600049" id="Fill-3"></path>
                    <path d="M42.4845662,0.257404022 L39.6424737,0.257404022 C38.7620583,0.257404022 38.1031684,0.492998442 37.7164681,1.35523852 L32.254067,13.4877171 L36.1164178,13.4877171 C36.1164178,13.4877171 36.7479077,11.8563082 36.8908525,11.498225 C37.3129659,11.498225 41.0646831,11.5038042 41.6010489,11.5038042 C41.7111655,11.9671314 42.0487528,13.4877171 42.0487528,13.4877171 L45.4615903,13.4877171 L42.4845662,0.257404022 M37.9493671,8.79028395 C38.2533508,8.02745508 39.4147444,5.08949883 39.4147444,5.08949883 C39.3927728,5.12474924 39.7166602,4.32311957 39.9022557,3.82606353 L40.1509226,4.96751722 C40.1509226,4.96751722 40.8553066,8.12762709 41.0023872,8.79028395 L37.9493671,8.79028395" id="Fill-4"></path>
                    <path d="M12.9518772,0.254360822 L9.35085931,9.28226799 L8.96726082,7.44747183 C8.29699743,5.33244765 6.2084019,3.04117146 3.87320735,1.89413856 L7.16584718,13.4719939 L11.0574073,13.4676827 L16.8478316,0.254360822 L12.9518772,0.254360822" id="Fill-5"></path>
                    <path d="M6.01039891,0.246245621 L0.07961478,0.246245621 L0.0325696827,0.521655244 C4.64686656,1.61746094 7.69988658,4.26555236 8.96726082,7.44747183 L7.67765648,1.36386092 C7.45483849,0.525459245 6.80913161,0.275409623 6.01039891,0.246245621" id="Fill-6"></path>
                </g>
                <g id="Group" transform="translate(127.259507, 0.157045)">
                    <path d="M35.8954029,11.8435433 L36.4327593,11.954744 C36.4327593,12.0659447 36.325288,12.1771453 36.2178167,12.288346 C36.1103455,12.3995467 36.0028742,12.5107473 35.8954029,12.5107473 C35.7879317,12.5107473 35.6804604,12.621948 35.4655179,12.621948 C35.2505753,12.621948 35.0356328,12.621948 34.9281615,12.5107473 C34.8206903,12.3995467 34.713219,12.288346 34.6057477,12.1771453 C34.4982765,12.0659447 34.4982765,11.8435433 34.4982765,11.621142 C34.4982765,11.2875399 34.6057477,11.0651386 34.713219,10.8427373 C34.9281615,10.6203359 35.1431041,10.6203359 35.4655179,10.6203359 C35.6804604,10.6203359 35.8954029,10.6203359 36.0028742,10.7315366 C36.1103455,10.8427373 36.2178167,10.9539379 36.325288,11.1763393 L35.8954029,11.3987406 C35.8954029,11.2875399 35.8954029,11.2875399 35.7879317,11.2875399 L35.6804604,11.1763393 L35.4655179,11.1763393 C35.3580466,11.1763393 35.2505753,11.2875399 35.1431041,11.3987406 C35.0356328,11.5099413 35.0356328,11.621142 35.0356328,11.8435433 C35.0356328,12.0659447 35.0356328,12.1771453 35.1431041,12.288346 C35.2505753,12.3995467 35.2505753,12.3995467 35.4655179,12.3995467 C35.5729891,12.3995467 35.6804604,12.3995467 35.6804604,12.288346 C35.7879317,12.0659447 35.8954029,11.954744 35.8954029,11.8435433 L35.8954029,11.8435433 L35.8954029,11.8435433 Z" id="Shape" fill="#000000"></path>
                    <path d="M37.1850581,11.621142 C37.1850581,11.8435433 37.1850581,11.954744 37.2925294,12.0659447 C37.4000007,12.1771453 37.5074719,12.1771453 37.6149432,12.1771453 C37.7224145,12.1771453 37.8298857,12.1771453 37.937357,12.0659447 C38.0448283,11.954744 38.0448283,11.8435433 38.0448283,11.621142 C38.0448283,11.3987406 38.0448283,11.2875399 37.937357,11.1763393 C37.8298857,11.0651386 37.7224145,11.0651386 37.6149432,11.0651386 C37.5074719,11.0651386 37.4000007,11.0651386 37.2925294,11.1763393 C37.2925294,11.2875399 37.1850581,11.3987406 37.1850581,11.621142 L37.1850581,11.621142 L37.1850581,11.621142 Z M36.6477018,11.621142 C36.6477018,11.2875399 36.7551731,11.0651386 36.8626443,10.8427373 C37.0775869,10.6203359 37.2925294,10.6203359 37.6149432,10.6203359 C37.937357,10.6203359 38.1522995,10.7315366 38.3672421,10.8427373 C38.5821846,11.0651386 38.5821846,11.2875399 38.5821846,11.621142 C38.5821846,11.8435433 38.5821846,12.0659447 38.4747133,12.1771453 C38.3672421,12.288346 38.2597708,12.3995467 38.1522995,12.5107473 C38.0448283,12.621948 37.8298857,12.621948 37.6149432,12.621948 C37.4000007,12.621948 37.1850581,12.621948 37.0775869,12.5107473 C36.9701156,12.3995467 36.8626443,12.288346 36.7551731,12.1771453 C36.6477018,12.0659447 36.6477018,11.8435433 36.6477018,11.621142 L36.6477018,11.621142 L36.6477018,11.621142 Z" id="Shape" fill="#000000"></path>
                    <polygon id="Shape" fill="#000000" points="38.9045984 10.6203359 39.7643685 10.6203359 39.979311 11.8435433 40.3017248 10.6203359 41.0540237 10.6203359 41.0540237 12.621948 40.6241386 12.621948 40.6241386 11.1763393 40.1942536 12.621948 39.7643685 12.621948 39.4419547 11.1763393 39.4419547 12.621948 38.9045984 12.621948"></polygon>
                    <path d="M42.1287364,11.5099413 L42.2362076,11.5099413 C42.3436789,11.5099413 42.4511502,11.5099413 42.4511502,11.3987406 L42.5586214,11.2875399 C42.5586214,11.1763393 42.5586214,11.1763393 42.4511502,11.1763393 C42.4511502,11.1763393 42.3436789,11.0651386 42.2362076,11.0651386 L42.0212651,11.0651386 L42.0212651,11.5099413 L42.1287364,11.5099413 L42.1287364,11.5099413 Z M41.4839088,10.6203359 L42.4511502,10.6203359 C42.6660927,10.6203359 42.8810352,10.6203359 42.9885065,10.7315366 C43.0959778,10.8427373 43.0959778,10.9539379 43.0959778,11.1763393 C43.0959778,11.3987406 42.9885065,11.5099413 42.8810352,11.621142 C42.773564,11.7323426 42.5586214,11.8435433 42.3436789,11.8435433 L42.0212651,11.8435433 L42.0212651,12.621948 L41.3764375,12.621948 L41.3764375,10.6203359 L41.4839088,10.6203359 L41.4839088,10.6203359 Z" id="Shape" fill="#000000"></path>
                    <polygon id="Shape" fill="#000000" points="43.4183916 10.6203359 44.0632192 10.6203359 44.0632192 12.1771453 44.9229893 12.1771453 44.9229893 12.621948 43.4183916 12.621948"></polygon>
                    <polygon id="Shape" fill="#000000" points="45.2454031 10.6203359 45.8902307 10.6203359 45.8902307 12.621948 45.2454031 12.621948"></polygon>
                    <path d="M47.2873572,11.8435433 L47.0724146,11.1763393 L46.8574721,11.8435433 L47.2873572,11.8435433 L47.2873572,11.8435433 Z M47.5022997,12.288346 L46.8574721,12.288346 L46.7500008,12.621948 L46.1051732,12.621948 L46.8574721,10.6203359 L47.5022997,10.6203359 L48.2545985,12.621948 L47.6097709,12.621948 L47.5022997,12.288346 L47.5022997,12.288346 Z" id="Shape" fill="#000000"></path>
                    <polygon id="Shape" fill="#000000" points="48.3620698 10.6203359 48.8994261 10.6203359 49.651725 11.7323426 49.651725 10.6203359 50.1890813 10.6203359 50.1890813 12.621948 49.651725 12.621948 48.8994261 11.5099413 48.8994261 12.621948 48.3620698 12.621948"></polygon>
                    <polygon id="Shape" fill="#000000" points="50.5114951 10.6203359 52.2310354 10.6203359 52.2310354 11.1763393 51.6936791 11.1763393 51.6936791 12.621948 51.0488515 12.621948 51.0488515 11.1763393 50.5114951 11.1763393"></polygon>
                    <path d="M28.1574718,7.84031911 L24.8258625,0.0562720452 L0,1.50188079 L6.87816104,20.8507978 L20.0971268,16.5139715 C19.2373567,15.2907642 18.9149429,13.7339547 19.8821843,13.0667507 C20.9568969,12.288346 22.5689659,13.1779514 23.6436786,14.5123594 C24.61092,12.7331487 27.5126442,8.72992449 28.1574718,7.84031911 L28.1574718,7.84031911 L28.1574718,7.84031911 Z M28.6948281,13.7339547 L30.4143683,13.1779514 L29.877012,11.8435433 C29.447127,12.3995467 29.0172419,13.0667507 28.6948281,13.7339547 L28.6948281,13.7339547 L28.6948281,13.7339547 Z" id="Shape" fill="#000000"></path>
                    <path d="M22.4614946,6.39471037 L25.5781614,6.39471037 L25.5781614,14.7347608 L22.4614946,14.7347608 L22.4614946,6.39471037 L22.4614946,6.39471037 Z M23.9660924,5.61630566 C25.040805,5.61630566 25.7931039,4.83790095 25.7931039,3.8370949 C25.7931039,2.83628885 24.9333338,2.05788415 23.9660924,2.05788415 C22.8913797,2.05788415 22.1390808,2.83628885 22.1390808,3.8370949 C22.1390808,4.83790095 22.998851,5.61630566 23.9660924,5.61630566 L23.9660924,5.61630566 L23.9660924,5.61630566 Z" id="Shape" fill="#FFFFFF"></path>
                    <path d="M20.9568969,8.84112516 L20.9568969,8.84112516 L20.9568969,6.72831238 L20.9568969,6.61711171 C20.9568969,6.61711171 20.5270119,6.39471037 19.3448279,6.28350969 L17.9477015,6.28350969 C13.4339083,6.61711171 13.326437,9.95313188 13.326437,10.1755332 L13.326437,10.9539379 C13.326437,11.0651386 13.326437,14.5123594 17.9477015,14.7347608 L19.3448279,14.7347608 C20.4195406,14.7347608 21.1718395,14.4011588 21.1718395,14.4011588 C21.1718395,14.4011588 21.1718395,14.4011588 21.1718395,14.2899581 L21.1718395,12.288346 L21.1718395,12.288346 C21.1718395,12.288346 20.8494257,12.5107473 19.3448279,12.7331487 L18.5925291,12.7331487 C16.550575,12.3995467 16.4431037,10.8427373 16.4431037,10.8427373 L16.4431037,10.7315366 L16.4431037,10.1755332 L16.4431037,10.0643326 C16.4431037,10.0643326 16.550575,8.39632247 18.5925291,8.17392112 L19.3448279,8.17392112 C20.2045981,8.39632247 20.9568969,8.84112516 20.9568969,8.84112516 L20.9568969,8.84112516 L20.9568969,8.84112516 Z" id="Shape" fill="#FFFFFF"></path>
                    <path d="M7.73793117,10.3979346 L7.73793117,8.17392112 L8.49023003,8.17392112 C8.49023003,8.17392112 9.5649427,8.17392112 9.67241396,8.95232583 L9.67241396,9.39712852 C9.5649427,10.2867339 8.5977013,10.2867339 8.5977013,10.2867339 L7.73793117,10.3979346 L7.73793117,10.3979346 Z M4.72873572,14.7347608 L4.72873572,14.7347608 L7.73793117,14.7347608 L7.73793117,14.7347608 L7.73793117,12.288346 L7.73793117,12.288346 C7.73793117,12.288346 12.4666669,12.621948 12.4666669,9.28592785 C12.4666669,6.61711171 9.45747143,6.39471037 8.49023003,6.39471037 L4.62126445,6.39471037 L4.62126445,6.39471037 L4.72873572,14.7347608 L4.72873572,14.7347608 Z" id="Shape" fill="#FFFFFF"></path>
                    <path d="M24.0735636,18.737985 C24.2885062,18.737985 24.5034487,18.737985 24.8258625,18.6267843 C25.9005752,18.070781 29.5545982,8.72992449 33.4235638,5.94990768 C33.4235638,5.94990768 33.5310351,5.94990768 33.5310351,5.83870701 L33.5310351,5.72750633 C33.5310351,5.72750633 33.5310351,5.50510499 32.9936787,5.50510499 C29.5545982,5.39390432 26.0080464,12.8443494 24.0735636,15.8467675 L23.9660924,15.8467675 C23.9660924,15.8467675 22.6764372,14.2899581 21.6017245,13.7339547 L21.2793107,13.7339547 C21.1718395,13.7339547 20.6344831,13.8451554 20.4195406,14.0675568 C20.0971268,14.4011588 20.0971268,14.5123594 20.0971268,14.9571621 C20.0971268,14.9571621 20.0971268,15.0683628 20.2045981,15.1795635 C20.4195406,15.6243662 21.7091958,17.4035769 22.6764372,18.404383 C22.8913797,18.404383 23.1063222,18.737985 24.0735636,18.737985 L24.0735636,18.737985 L24.0735636,18.737985 Z" id="Shape" fill="#000000"></path>
                    <path d="M36.4327593,4.50429894 L36.4327593,8.06272045 L36.8626443,8.06272045 C37.2925294,8.06272045 37.5074719,8.06272045 37.7224145,7.95151978 C37.937357,7.84031911 38.0448283,7.72911843 38.1522995,7.50671709 C38.2597708,7.28431575 38.2597708,6.95071373 38.2597708,6.39471037 C38.2597708,5.72750633 38.1522995,5.28270364 37.937357,4.94910163 C37.7224145,4.72670028 37.4000007,4.61549961 36.8626443,4.61549961 L36.4327593,4.61549961 L36.4327593,4.50429894 L36.4327593,4.50429894 Z M34.4982765,3.0586902 L37.4000007,3.0586902 C37.937357,3.0586902 38.4747133,3.16989087 38.7971271,3.28109154 C39.1195409,3.39229221 39.4419547,3.61469356 39.6568972,3.94829558 C39.8718398,4.28189759 40.0867823,4.61549961 40.1942536,4.94910163 C40.3017248,5.39390432 40.3017248,5.72750633 40.3017248,6.17230902 C40.3017248,6.83951306 40.1942536,7.39551642 40.0867823,7.72911843 C39.979311,8.06272045 39.7643685,8.39632247 39.4419547,8.72992449 C39.1195409,8.95232583 38.9045984,9.17472718 38.5821846,9.28592785 C38.1522995,9.39712852 37.7224145,9.50832919 37.4000007,9.50832919 L34.4982765,9.50832919 L34.4982765,3.0586902 L34.4982765,3.0586902 L34.4982765,3.0586902 Z" id="Shape" fill="#000000"></path>
                    <path d="M40.7316099,7.39551642 L42.5586214,7.28431575 C42.5586214,7.61791776 42.6660927,7.84031911 42.773564,7.95151978 C42.9885065,8.17392112 43.203449,8.39632247 43.6333341,8.39632247 C43.9557479,8.39632247 44.1706904,8.2851218 44.2781617,8.17392112 C44.385633,8.06272045 44.4931042,7.84031911 44.4931042,7.72911843 C44.4931042,7.50671709 44.385633,7.39551642 44.2781617,7.28431575 C44.1706904,7.17311507 43.8482766,7.0619144 43.3109203,6.95071373 C42.4511502,6.72831238 41.9137938,6.50591104 41.4839088,6.17230902 C41.161495,5.83870701 40.9465524,5.39390432 40.9465524,4.94910163 C40.9465524,4.61549961 41.0540237,4.28189759 41.2689662,4.05949625 C41.4839088,3.72589423 41.6988513,3.50349289 42.1287364,3.39229221 C42.4511502,3.16989087 42.9885065,3.16989087 43.6333341,3.16989087 C44.385633,3.16989087 45.0304606,3.28109154 45.4603456,3.61469356 C45.8902307,3.94829558 46.1051732,4.39309827 46.2126445,5.0603023 L44.385633,5.17150297 C44.385633,4.83790095 44.2781617,4.61549961 44.0632192,4.50429894 C43.9557479,4.39309827 43.7408054,4.28189759 43.4183916,4.28189759 C43.203449,4.28189759 42.9885065,4.28189759 42.8810352,4.39309827 C42.773564,4.50429894 42.6660927,4.61549961 42.6660927,4.72670028 C42.6660927,4.83790095 42.6660927,4.94910163 42.773564,4.94910163 C42.8810352,5.0603023 43.0959778,5.0603023 43.4183916,5.17150297 C44.2781617,5.39390432 44.815518,5.50510499 45.2454031,5.72750633 C45.5678169,5.94990768 45.8902307,6.17230902 45.997702,6.39471037 C46.2126445,6.72831238 46.2126445,6.95071373 46.2126445,7.39551642 C46.2126445,7.84031911 46.1051732,8.17392112 45.8902307,8.50752314 C45.6752882,8.84112516 45.3528744,9.17472718 44.9229893,9.28592785 C44.4931042,9.50832919 44.0632192,9.50832919 43.4183916,9.50832919 C42.3436789,9.50832919 41.59138,9.28592785 41.161495,8.84112516 C41.0540237,8.61872381 40.8390812,8.06272045 40.7316099,7.39551642 L40.7316099,7.39551642 L40.7316099,7.39551642 Z" id="Shape" fill="#000000"></path>
                    <path d="M46.8574721,7.39551642 L48.6844836,7.28431575 C48.6844836,7.61791776 48.7919549,7.84031911 48.8994261,7.95151978 C49.1143687,8.17392112 49.3293112,8.39632247 49.7591963,8.39632247 C50.0816101,8.39632247 50.2965526,8.2851218 50.4040239,8.17392112 C50.5114951,8.06272045 50.6189664,7.84031911 50.6189664,7.72911843 C50.6189664,7.50671709 50.5114951,7.39551642 50.4040239,7.28431575 C50.2965526,7.17311507 49.9741388,7.0619144 49.4367825,6.95071373 C48.5770123,6.72831238 48.039656,6.50591104 47.6097709,6.17230902 C47.2873572,5.83870701 47.0724146,5.39390432 47.0724146,4.94910163 C47.0724146,4.61549961 47.1798859,4.28189759 47.3948284,4.05949625 C47.6097709,3.72589423 47.8247135,3.50349289 48.2545985,3.39229221 C48.5770123,3.16989087 49.1143687,3.16989087 49.7591963,3.16989087 C50.5114951,3.16989087 51.1563227,3.28109154 51.5862078,3.61469356 C52.0160929,3.94829558 52.2310354,4.39309827 52.3385067,5.0603023 L50.5114951,4.94910163 C50.5114951,4.61549961 50.4040239,4.39309827 50.1890813,4.28189759 C50.0816101,4.17069692 49.8666675,4.05949625 49.5442537,4.05949625 C49.3293112,4.05949625 49.1143687,4.05949625 49.0068974,4.17069692 C48.8994261,4.28189759 48.7919549,4.39309827 48.7919549,4.50429894 C48.7919549,4.61549961 48.7919549,4.72670028 48.8994261,4.72670028 C49.0068974,4.83790095 49.2218399,4.83790095 49.5442537,4.94910163 C50.4040239,5.17150297 50.9413802,5.28270364 51.3712653,5.50510499 C51.6936791,5.72750633 52.0160929,5.94990768 52.1235641,6.17230902 C52.3385067,6.50591104 52.3385067,6.72831238 52.3385067,7.17311507 C52.3385067,7.61791776 52.2310354,7.95151978 52.0160929,8.2851218 C51.8011503,8.61872381 51.4787365,8.95232583 51.0488515,9.0635265 C50.6189664,9.28592785 50.1890813,9.28592785 49.5442537,9.28592785 C48.4695411,9.28592785 47.7172422,9.0635265 47.2873572,8.61872381 C47.1798859,8.61872381 46.9649434,8.06272045 46.8574721,7.39551642 L46.8574721,7.39551642 L46.8574721,7.39551642 Z" id="Shape" fill="#000000"></path>
                </g>
            </g>
            <g id="Group" transform="translate(68.000000, 0.000000)">
                <rect id="Rectangle-7" fill-opacity="0" fill="#FFFFFF" x="0" y="0" width="34" height="22"></rect>
                <g id="icon_mastercard" transform="translate(3.800003, 2.000000)" fill="#000000">
                    <polygon id="Fill-2" points="10.1998827 14.9662521 17.7607038 14.9662521 17.7607038 1.79154882 10.1998827 1.79154882"></polygon>
                    <path d="M10.6802346,8.37890047 C10.6802346,5.70618768 11.9709443,3.32592227 13.9805396,1.79154882 C12.5104985,0.669372512 10.656176,0 8.64042229,0 C3.86835191,0 0,3.75157536 0,8.37890047 C0,13.0062256 3.86835191,16.7578009 8.64042229,16.7578009 C10.656176,16.7578009 12.5104985,16.0884284 13.9805396,14.9662521 C11.9709443,13.4319583 10.6802346,11.0516133 10.6802346,8.37890047" id="Fill-3" stroke="#FFFFFF" stroke-width="0.5"></path>
                    <path d="M19.3206569,16.7541822 C17.3049032,16.7541822 15.4505806,16.084932 13.9811144,14.9629607 C15.9907097,13.4295044 17.2809267,11.0491166 17.2809267,8.37681249 C17.2809267,5.70458797 15.9907097,3.32475742 13.9811144,1.79066427 C15.4505806,0.669250224 17.3049032,0 19.3206569,0 C24.0927273,0 27.9610792,3.75033274 27.9610792,8.37681249 C27.9610792,13.0038495 24.0927273,16.7541822 19.3206569,16.7541822 Z" id="Fill-4" stroke="#FFFFFF" stroke-width="0.5"></path>
                </g>
                <g transform="translate(0.000000, 21.000000)" fill="#0B0B09" id="Fill-1">
                    <path d="M38.5279528,4.74306919 L38.5279528,4.83095118 L38.6049743,4.83095118 C38.6224016,4.83095118 38.6365385,4.8274973 38.647263,4.82058955 C38.6581094,4.81265842 38.6629842,4.80140134 38.6629842,4.78656246 C38.6629842,4.7718515 38.6581094,4.76136195 38.647263,4.75355874 C38.6365385,4.74665099 38.6224016,4.74306919 38.6049743,4.74306919 L38.5279528,4.74306919 Z M38.6058274,4.68128316 C38.6464099,4.68128316 38.677121,4.69087726 38.699545,4.70917002 C38.7211159,4.72835823 38.7318405,4.75445419 38.7318405,4.78656246 C38.7318405,4.81355387 38.7235533,4.83619596 38.706126,4.85448872 C38.6886987,4.87188602 38.6638373,4.88237558 38.6315418,4.88672491 L38.7342779,5.01106449 L38.6539658,5.01106449 L38.558542,4.88749243 L38.5279528,4.88749243 L38.5279528,5.01106449 L38.4606808,5.01106449 L38.4606808,4.68128316 L38.6058274,4.68128316 Z M38.5859626,5.12427492 C38.6224016,5.12427492 38.6564032,5.11723925 38.6879674,5.10252829 C38.7194098,5.08858485 38.7467085,5.0685012 38.7708387,5.04330068 C38.794847,5.01810017 38.8131274,4.98931786 38.8271424,4.95541869 C38.8404262,4.92151952 38.8470072,4.88582946 38.8470072,4.84758096 C38.8470072,4.80920455 38.8404262,4.77351448 38.8271424,4.73961531 C38.8131274,4.70571614 38.794847,4.67693383 38.7708387,4.65173332 C38.7467085,4.6265328 38.7194098,4.6073446 38.6879674,4.59263364 C38.6564032,4.57869021 38.6224016,4.57165453 38.5859626,4.57165453 C38.5486706,4.57165453 38.5138159,4.57869021 38.4815205,4.59263364 C38.4491032,4.6073446 38.4218044,4.6265328 38.3977961,4.65173332 C38.3736659,4.67693383 38.3555074,4.70571614 38.3413705,4.73961531 C38.3280867,4.77351448 38.3215058,4.80920455 38.3215058,4.84758096 C38.3215058,4.88582946 38.3280867,4.92151952 38.3413705,4.95541869 C38.3555074,4.98931786 38.3736659,5.01810017 38.3977961,5.04330068 C38.4218044,5.0685012 38.4491032,5.08858485 38.4815205,5.10252829 C38.5138159,5.11723925 38.5486706,5.12427492 38.5859626,5.12427492 Z M38.5859626,4.49247119 C38.6331261,4.49247119 38.6779741,4.50116985 38.7202629,4.52035805 C38.7616985,4.53865081 38.7981375,4.56385132 38.8295798,4.59608751 C38.8602909,4.62819578 38.8851523,4.6665722 38.9034327,4.70917002 C38.9208601,4.75266329 38.9300003,4.79884291 38.9300003,4.84758096 C38.9300003,4.89619109 38.9208601,4.94237071 38.9034327,4.98496853 C38.8851523,5.0284618 38.8602909,5.06594277 38.8295798,5.09817896 C38.7981375,5.13028723 38.7616985,5.15561566 38.7202629,5.17467595 C38.6779741,5.19386416 38.6331261,5.20256281 38.5859626,5.20256281 C38.537093,5.20256281 38.4913919,5.19386416 38.4491032,5.17467595 C38.4068144,5.15561566 38.3703755,5.13028723 38.3396643,5.09817896 C38.308222,5.06594277 38.2842137,5.0284618 38.2659333,4.98496853 C38.2485059,4.94237071 38.2394876,4.89619109 38.2394876,4.84758096 C38.2394876,4.79884291 38.2485059,4.75266329 38.2659333,4.70917002 C38.2842137,4.6665722 38.308222,4.62819578 38.3396643,4.59608751 C38.3703755,4.56385132 38.4068144,4.53865081 38.4491032,4.52035805 C38.4913919,4.50116985 38.537093,4.49247119 38.5859626,4.49247119 Z M6.81823418,3.22297935 C6.81823418,2.59475741 7.20955722,2.07872254 7.85107839,2.07872254 C8.46371648,2.07872254 8.87661042,2.57211533 8.87661042,3.22297935 C8.87661042,3.87384336 8.46371648,4.36723615 7.85107839,4.36723615 C7.20955722,4.36723615 6.81823418,3.85120128 6.81823418,3.22297935 Z M9.57455717,3.22297935 L9.57455717,1.43566173 L8.83432169,1.43566173 L8.83432169,1.86995484 C8.59886978,1.5479767 8.24240142,1.34611676 7.75833568,1.34611676 C6.8033661,1.34611676 6.05557471,2.13180991 6.05557471,3.22297935 C6.05557471,4.31504423 6.8033661,5.09984194 7.75833568,5.09984194 C8.24240142,5.09984194 8.59886978,4.89798199 8.83432169,4.57689931 L8.83432169,5.01016904 L9.57455717,5.01016904 L9.57455717,3.22297935 Z M34.593639,3.22297935 C34.593639,2.59475741 34.9856932,2.07872254 35.626605,2.07872254 C36.2391212,2.07872254 36.6527464,2.57211533 36.6527464,3.22297935 C36.6527464,3.87384336 36.2391212,4.36723615 35.626605,4.36723615 C34.9856932,4.36723615 34.593639,3.85120128 34.593639,3.22297935 Z M37.350815,3.22297935 L37.350815,0 L36.6097265,0 L36.6097265,1.86995484 C36.3750058,1.5479767 36.0186593,1.34611676 35.5344717,1.34611676 C34.5795021,1.34611676 33.8318326,2.13180991 33.8318326,3.22297935 C33.8318326,4.31504423 34.5795021,5.09984194 35.5344717,5.09984194 C36.0186593,5.09984194 36.3750058,4.89798199 36.6097265,4.57689931 L36.6097265,5.01016904 L37.350815,5.01016904 L37.350815,3.22297935 Z M18.7644941,2.04136949 C19.2419789,2.04136949 19.5478714,2.3554165 19.6265991,2.90893234 L17.8601004,2.90893234 C17.937975,2.39289747 18.2372866,2.04136949 18.7644941,2.04136949 Z M18.778631,1.34611676 C17.7813727,1.34611676 17.0834259,2.10916783 17.0834259,3.22297935 C17.0834259,4.35943295 17.8103776,5.09984194 18.8292069,5.09984194 C19.3414245,5.09984194 19.8114752,4.96501279 20.2251004,4.59864594 L19.8620511,4.02351139 C19.5768764,4.2628523 19.2138271,4.39678599 18.8713737,4.39678599 C18.3940108,4.39678599 17.9595459,4.1653762 17.8526664,3.52231539 L20.3818246,3.52231539 C20.3892586,3.42483929 20.3958396,3.3273632 20.3958396,3.22297935 C20.3892586,2.10916783 19.7336006,1.34611676 18.778631,1.34611676 Z M27.7189792,3.22297935 C27.7189792,2.59475741 28.1111553,2.07872254 28.7526765,2.07872254 C29.3653146,2.07872254 29.7780866,2.57211533 29.7780866,3.22297935 C29.7780866,3.87384336 29.3653146,4.36723615 28.7526765,4.36723615 C28.1111553,4.36723615 27.7189792,3.85120128 27.7189792,3.22297935 Z M30.4761553,3.22297935 L30.4761553,1.43566173 L29.7350667,1.43566173 L29.7350667,1.86995484 C29.5004679,1.5479767 29.1439995,1.34611676 28.6598119,1.34611676 C27.7049642,1.34611676 26.9571728,2.13180991 26.9571728,3.22297935 C26.9571728,4.31504423 27.7049642,5.09984194 28.6598119,5.09984194 C29.1439995,5.09984194 29.5004679,4.89798199 29.7350667,4.57689931 L29.7350667,5.01016904 L30.4761553,5.01016904 L30.4761553,3.22297935 Z M23.5377577,3.22297935 C23.5377577,4.3071131 24.2572754,5.09984194 25.3539792,5.09984194 C25.8670499,5.09984194 26.2093814,4.9806192 26.5792554,4.67347995 L26.2235183,4.04525802 C25.9457776,4.25492118 25.6532908,4.36723615 25.3332614,4.36723615 C24.7413411,4.35943295 24.3069982,3.91119641 24.3069982,3.22297935 C24.3069982,2.53552981 24.7413411,2.08665367 25.3332614,2.07872254 C25.6532908,2.07872254 25.9457776,2.19103752 26.2235183,2.40070067 L26.5792554,1.77247874 C26.2093814,1.46623494 25.8670499,1.34611676 25.3539792,1.34611676 C24.2572754,1.34611676 23.5377577,2.13884559 23.5377577,3.22297935 Z M33.0831881,1.34611676 C32.656401,1.34611676 32.3786604,1.55577991 32.1863503,1.86995484 L32.1863503,1.43566173 L31.4526957,1.43566173 L31.4526957,5.01016904 L32.1929312,5.01016904 L32.1929312,3.00628052 C32.1929312,2.41553955 32.4358172,2.08665367 32.9200048,2.08665367 C33.0691731,2.08665367 33.2257754,2.10916783 33.3833527,2.17619864 L33.6105175,1.44359285 C33.4472124,1.37656205 33.2333313,1.34611676 33.0831881,1.34611676 Z M13.236127,1.72028681 C12.8805117,1.47314269 12.3888901,1.34611676 11.8475456,1.34611676 C10.9854406,1.34611676 10.4300812,1.78028194 10.4300812,2.49037356 C10.4300812,3.07331132 10.8428533,3.4326425 11.6046597,3.54495748 L11.9545471,3.5971494 C12.3598851,3.65714453 12.5521952,3.76856406 12.5521952,3.97042401 C12.5521952,4.24711797 12.2820105,4.4045892 11.776252,4.4045892 C11.2631813,4.4045892 10.8925761,4.23240701 10.6431091,4.03041914 L10.2940748,4.63612691 C10.700266,4.95017391 11.2134585,5.09984194 11.7688179,5.09984194 C12.7519394,5.09984194 13.3224106,4.61438027 13.3224106,3.93383849 C13.3224106,3.30561656 12.8729558,2.97673068 12.1318672,2.8644157 L11.7829548,2.81145624 C11.4629254,2.76706752 11.2060245,2.70003672 11.2060245,2.4606958 C11.2060245,2.19884072 11.4480573,2.04136949 11.8542485,2.04136949 C12.2894445,2.04136949 12.7089194,2.2136796 12.9160976,2.34850874 L13.236127,1.72028681 Z M22.7899663,1.34611676 C22.3622043,1.34611676 22.0844637,1.55577991 21.8921536,1.86995484 L21.8921536,1.43566173 L21.1586209,1.43566173 L21.1586209,5.01016904 L21.8988564,5.01016904 L21.8988564,3.00628052 C21.8988564,2.41553955 22.1417423,2.08665367 22.6258081,2.08665367 C22.7749764,2.08665367 22.9325537,2.10916783 23.0892779,2.17619864 L23.3171739,1.44359285 C23.1530156,1.37656205 22.9391346,1.34611676 22.7899663,1.34611676 Z M16.4707879,1.43566173 L15.2596485,1.43566173 L15.2596485,0.351527972 L14.5118571,0.351527972 L14.5118571,1.43566173 L13.8204913,1.43566173 L13.8204913,2.1466488 L14.5118571,2.1466488 L14.5118571,3.77636727 C14.5118571,4.60644915 14.8177496,5.09984194 15.6939915,5.09984194 C16.014874,5.09984194 16.3853573,4.99545808 16.6199561,4.82314798 L16.4069282,4.157573 C16.1856132,4.29240214 15.9435803,4.35943295 15.7512702,4.35943295 C15.380665,4.35943295 15.2596485,4.12009203 15.2596485,3.76152839 L15.2596485,2.1466488 L16.4707879,2.1466488 L16.4707879,1.43566173 Z M5.39991668,5.01016904 L5.39991668,2.76706752 C5.39991668,1.92214676 4.8875772,1.35391996 4.06117997,1.34611676 C3.62671512,1.33908108 3.17738219,1.4809459 2.86405565,1.98214189 C2.62945682,1.58532975 2.25897347,1.34611676 1.73834687,1.34611676 C1.37517569,1.34611676 1.01882921,1.45830381 0.741088567,1.87686259 L0.741088567,1.43566173 L0,1.43566173 L0,5.01016904 L0.748522608,5.01016904 L0.748522608,3.0289226 C0.748522608,2.40760843 1.07598602,2.07872254 1.58162266,2.07872254 C2.07324432,2.07872254 2.32271123,2.41553955 2.32271123,3.0211194 L2.32271123,5.01016904 L3.07050262,5.01016904 L3.07050262,3.0289226 C3.07050262,2.40760843 3.41283411,2.07872254 3.90445577,2.07872254 C4.41009241,2.07872254 4.65212529,2.41553955 4.65212529,3.0211194 L4.65212529,5.01016904 L5.39991668,5.01016904 Z"></path>
                </g>
            </g>
        </g>
    </g>
</svg>