<?xml version="1.0" encoding="UTF-8"?>
<svg width="79px" height="72px" viewBox="0 0 79 72" version="1.1" xmlns="http://www.w3.org/2000/svg" xmlns:xlink="http://www.w3.org/1999/xlink">
    <!-- Generator: Sketch 49.3 (51167) - http://www.bohemiancoding.com/sketch -->
    <title>AM/icon/human_1440</title>
    <desc>Created with Sketch.</desc>
    <defs></defs>
    <g id="AM/icon/human_1440" stroke="none" stroke-width="1" fill="none" fill-rule="evenodd">
        <g id="Group" transform="translate(9.000000, 10.000000)">
            <rect id="Rectangle-27-Copy-4" x="0" y="0" width="66" height="60"></rect>
            <path d="M33.0102246,43.9998488 C33.0102246,43.9998488 17.9843028,44.0740532 17.1503179,42.8633196 C16.4620132,41.8640763 18.3572362,38.9864322 18.8203664,38.7287973 C19.6409248,38.2723285 24.9283838,37.5677671 29.0789099,34.3397915 C29.491253,33.8457682 30.1142632,32.6139368 29.5311639,30.8664189 C28.397089,29.4271546 25.6104772,27.2549575 25.6111396,21.9569726 C25.6116877,17.5724334 28.3229113,13.0012117 33.007204,13.0006247 C37.6826477,13.010589 40.3883129,17.5769307 40.3888604,21.9569726 C40.3895228,27.2549575 37.602911,29.4271546 36.4688361,30.8664189 C35.8857368,32.6139368 36.508747,33.8457682 36.9210901,34.3397915 C41.0716162,37.5677671 46.3590752,38.2723285 47.1796336,38.7287973 C47.6427638,38.9864322 49.5379868,41.8640763 48.8496821,42.8633196 C48.0335848,44.048085 33.6278069,44.0024408 33.0102242,43.9999378 Z" id="Combined-Shape" stroke="#6BBFFF"></path>
        </g>
    </g>
</svg>