<?xml version="1.0" encoding="UTF-8"?>
<svg width="66px" height="60px" viewBox="0 0 66 60" version="1.1" xmlns="http://www.w3.org/2000/svg" xmlns:xlink="http://www.w3.org/1999/xlink">
    <!-- Generator: Sketch 49.3 (51167) - http://www.bohemiancoding.com/sketch -->
    <title>AM/icon/human</title>
    <desc>Created with Sketch.</desc>
    <defs></defs>
    <g id="AM/icon/human" stroke="none" stroke-width="1" fill="none" fill-rule="evenodd">
        <rect id="Rectangle-27-Copy" x="0" y="-1" width="66" height="60"></rect>
        <path d="M35.2510772,45.2290182 C35.2510772,45.2290182 22.8626168,45.2915182 22.1751168,44.2915182 C21.607709,43.4661977 23.1704988,41.0891088 23.5523574,40.876265 C24.2289217,40.4991554 28.5883412,39.9167623 32.0105937,37.2501182 C32.3505988,36.8420214 32.8643524,35.8244775 32.3837436,34.381073 C31.448846,33.1923306 29.1515367,31.3983177 29.1525084,27.0221775 C29.1533125,23.4005442 31.3890082,19.6244932 35.2510772,19.623632 C39.1043067,19.63388 41.334449,23.4050458 41.3352522,27.0221775 C41.3362239,31.3983177 39.0389145,33.1923306 38.104017,34.381073 C37.6234082,35.8244775 38.1371617,36.8420214 38.4771668,37.2501182 C41.8994194,39.9167623 46.2588388,40.4991554 46.9354031,40.876265 C47.3172617,41.0891088 48.8800516,43.4661977 48.3126437,44.2915182 C47.6387611,45.2717111 35.7228525,45.2310773 35.251077,45.229083 Z" id="Combined-Shape" stroke="#6BBFFF"></path>
    </g>
</svg>