<?xml version="1.0" encoding="UTF-8"?>
<svg width="79px" height="72px" viewBox="0 0 79 72" version="1.1" xmlns="http://www.w3.org/2000/svg" xmlns:xlink="http://www.w3.org/1999/xlink">
    <!-- Generator: Sketch 49.3 (51167) - http://www.bohemiancoding.com/sketch -->
    <title>AM/icon/phone_1440</title>
    <desc>Created with Sketch.</desc>
    <defs></defs>
    <g id="AM/icon/phone_1440" stroke="none" stroke-width="1" fill="none" fill-rule="evenodd">
        <rect id="Rectangle-27-Copy-2" x="6" y="6" width="66" height="60"></rect>
        <g id="Group" transform="translate(24.000000, 20.000000)" stroke="#F353AE">
            <g id="Group-59" transform="translate(16.612804, 20.191868) rotate(45.000000) translate(-16.612804, -20.191868) translate(-1.387196, 15.191868)">
                <g id="Group-34-Copy-11" transform="translate(22.832512, 0.305614)">
                    <path d="M7.12263054,7.53986393 C8.85862708,7.11360797 10.3213556,6.71928815 11.509992,6.35726556 C11.5102577,6.35718464 11.5102577,6.35718464 11.5105233,6.35710363 C12.1338646,6.16693217 12.4850181,5.50744978 12.2948474,4.88411086 L11.3289461,1.71814993 C11.3155205,1.67414366 11.2992441,1.63105817 11.28022,1.58916683 C11.038155,1.05613469 10.4098146,0.820259218 9.87678248,1.06232422 L1.84075359,4.71171263 C1.29035728,4.96166319 0.958535816,5.53266108 1.01386808,6.13461599 L1.17653097,7.90421145 C1.17744356,7.9136697 1.17744356,7.9136697 1.17852718,7.92310988 C1.22435096,8.30697344 1.57268562,8.58101543 1.95654587,8.53520383 C3.39787901,8.36314445 5.12050761,8.03146446 7.12263054,7.53986393 Z" id="Combined-Shape"></path>
                </g>
                <g id="Group-34-Copy-13" transform="translate(7.453908, 5.055614) scale(-1, 1) translate(-7.453908, -5.055614) translate(0.889392, 0.305614)">
                    <path d="M7.12263054,7.53986393 C8.85862708,7.11360797 10.3213556,6.71928815 11.509992,6.35726556 C11.5102577,6.35718464 11.5102577,6.35718464 11.5105233,6.35710363 C12.1338646,6.16693217 12.4850181,5.50744978 12.2948474,4.88411086 L11.3289461,1.71814993 C11.3155205,1.67414366 11.2992441,1.63105817 11.28022,1.58916683 C11.038155,1.05613469 10.4098146,0.820259218 9.87678248,1.06232422 L1.84075359,4.71171263 C1.29035728,4.96166319 0.958535816,5.53266108 1.01386808,6.13461599 L1.17653097,7.90421145 C1.17744356,7.9136697 1.17744356,7.9136697 1.17852718,7.92310988 C1.22435096,8.30697344 1.57268562,8.58101543 1.95654587,8.53520383 C3.39787901,8.36314445 5.12050761,8.03146446 7.12263054,7.53986393 Z" id="Combined-Shape"></path>
                </g>
                <path d="M12.4428523,8.80547255 C12.4428523,8.80547255 15.0794233,9.03833489 18.1246929,9.04414862 C21.1699624,9.04996235 24.4777372,8.8088389 24.4777372,8.8088389" id="Line-Copy"></path>
            </g>
            <path d="M13.0787537,14.7779536 C18.6935484,5.81603958 31.8225806,5.81232955 36.9497215,14.7779536" id="Line-2" stroke-linecap="round" stroke-linejoin="round" transform="translate(25.014238, 11.416540) rotate(45.000000) translate(-25.014238, -11.416540) "></path>
            <path d="M15.0434519,16.4985779 C18.153665,11.7236143 25.314494,11.7236143 28.1724842,16.4985779" id="Line-2-Copy" stroke-linecap="round" stroke-linejoin="round" transform="translate(21.607968, 14.707967) rotate(45.000000) translate(-21.607968, -14.707967) "></path>
        </g>
    </g>
</svg>