<?xml version="1.0" encoding="UTF-8"?>
<svg width="66px" height="60px" viewBox="0 0 66 60" version="1.1" xmlns="http://www.w3.org/2000/svg" xmlns:xlink="http://www.w3.org/1999/xlink">
    <!-- Generator: Sketch 49.3 (51167) - http://www.bohemiancoding.com/sketch -->
    <title>AM/icon/phone</title>
    <desc>Created with Sketch.</desc>
    <defs></defs>
    <g id="AM/icon/phone" stroke="none" stroke-width="1" fill="none" fill-rule="evenodd">
        <g id="3">
            <rect id="Rectangle-27-Copy-2" x="0" y="0" width="66" height="60"></rect>
        </g>
        <g id="Group" transform="translate(17.000000, 16.000000)" stroke="#F353AE">
            <g id="Group-59" transform="translate(14.849242, 17.506097) rotate(45.000000) translate(-14.849242, -17.506097) translate(-0.650758, 13.006097)">
                <g id="Group-34-Copy-11" transform="translate(19.129942, 0.257359)">
                    <path d="M5.94770256,6.27283004 C7.40661242,5.91278529 8.63468782,5.57989581 9.63108988,5.27453145 C10.1054233,5.12916392 10.3726652,4.62736213 10.2285688,4.15263907 L9.4111679,1.45969061 C9.4008241,1.42561316 9.38821636,1.39226443 9.37342882,1.35986696 C9.18996786,0.957929336 8.71540853,0.780819009 8.31347091,0.964279974 L1.5675454,4.04339953 C1.14242768,4.23744085 0.886311859,4.67890304 0.928871991,5.14426929 L1.06738539,6.65881958 C1.06805532,6.6657863 1.06805532,6.6657863 1.06885513,6.6727393 C1.10169453,6.94694605 1.35059197,7.14259608 1.62481282,7.10972994 C2.82963298,6.96543892 4.27120302,6.6865738 5.94770256,6.27283004 Z" id="Combined-Shape"></path>
                </g>
                <g id="Group-34-Copy-13" transform="translate(6.245166, 4.257359) scale(-1, 1) translate(-6.245166, -4.257359) translate(0.745166, 0.257359)">
                    <path d="M5.94770256,6.27283004 C7.40661242,5.91278529 8.63468782,5.57989581 9.63108988,5.27453145 C10.1054233,5.12916392 10.3726652,4.62736213 10.2285688,4.15263907 L9.4111679,1.45969061 C9.4008241,1.42561316 9.38821636,1.39226443 9.37342882,1.35986696 C9.18996786,0.957929336 8.71540853,0.780819009 8.31347091,0.964279974 L1.5675454,4.04339953 C1.14242768,4.23744085 0.886311859,4.67890304 0.928871991,5.14426929 L1.06738539,6.65881958 C1.06805532,6.6657863 1.06805532,6.6657863 1.06885513,6.6727393 C1.10169453,6.94694605 1.35059197,7.14259608 1.62481282,7.10972994 C2.82963298,6.96543892 4.27120302,6.6865738 5.94770256,6.27283004 Z" id="Combined-Shape"></path>
                </g>
                <path d="M10.2104289,7.3746109 C10.2104289,7.3746109 12.6341114,7.61122938 15.1855535,7.61612515 C17.7369956,7.62102093 20.7615289,7.35484436 20.7615289,7.35484436" id="Line-Copy"></path>
            </g>
            <path d="M11.7957126,12.5 C16.5,4.953125 27.5,4.95000076 31.7957126,12.5" id="Line-2" stroke-linecap="round" stroke-linejoin="round" transform="translate(21.795713, 9.669336) rotate(45.000000) translate(-21.795713, -9.669336) "></path>
            <path d="M13.8553214,13.8632046 C16.4611756,9.84218265 22.4607891,9.84218265 24.8553214,13.8632046" id="Line-2-Copy" stroke-linecap="round" stroke-linejoin="round" transform="translate(19.355321, 12.355321) rotate(45.000000) translate(-19.355321, -12.355321) "></path>
        </g>
    </g>
</svg>